<svg width="100" height="100" viewBox="0 0 100 100" fill="none" xmlns="http://www.w3.org/2000/svg">
<path d="M11.0887 1.20968C10.7661 2.58065 10.8065 2.58065 8.99193 1.93548C7.66129 1.45161 7.62097 1.45161 4.59677 4.43548C1.49194 7.5 1.49194 7.58065 2.21774 9.95968C2.45968 10.6855 2.29839 10.8468 1.25 11.0887L0 11.371V20.8871L1.25 21.1694C2.29839 21.4113 2.45968 21.5726 2.21774 22.2984C1.49194 24.6774 1.49194 24.7581 4.59677 27.8226C7.62097 30.8065 7.66129 30.8065 8.99193 30.3226C10.8065 29.6774 10.7661 29.6774 11.0887 31.0484L11.371 32.2581H20.8871L21.1694 31.0081C21.4113 29.9597 21.5726 29.7984 22.2984 30.0403C24.6774 30.7661 24.7581 30.7661 27.8226 27.6613C30.8064 24.6371 30.8064 24.5968 30.3226 23.2661C29.6774 21.4516 29.6774 21.4919 31.0484 21.1694C32.1371 20.9274 32.2581 20.7661 32.2581 19.3145V17.7419H47.5806C62.379 17.7419 62.9435 17.7823 63.7097 18.5484C64.2339 19.0726 64.5161 19.879 64.5161 20.9677V22.5806H55.6452C44.8387 22.5806 45.1613 22.4194 45.1613 27.4194C45.1613 31.0081 45.8468 32.2581 47.7419 32.2581C48.4274 32.2581 48.9919 32.6613 49.5564 33.629C50.0403 34.3548 50.4032 35.0806 50.4032 35.2419C50.4032 35.3629 39.6774 35.4839 26.5726 35.4839H2.74194L0 38.2258V97.2581L2.74194 100H97.2581L100 97.2581V38.2258L98.629 36.8548C97.6613 35.8871 96.8952 35.4839 96.0081 35.4839C94.5161 35.4839 94.5161 35.3629 95.6048 33.629C96.1693 32.6613 96.7339 32.2581 97.4193 32.2581C99.3145 32.2581 100 31.0081 100 27.4194C100 22.4194 100.323 22.5806 89.5161 22.5806C80.9274 22.5806 80.6452 22.5403 80.6452 21.7742C80.6452 21.3306 81.0081 20.6048 81.4516 20.1613C82.1774 19.4355 82.7823 19.3548 88.1452 19.3548H94.0322L95.4032 17.9839C96.5323 16.8548 96.7742 16.2903 96.7742 14.9597C96.7742 13.5081 97.0161 13.0645 98.3871 11.7339C99.879 10.3226 100 10.0403 100 8.10484C100 6.20968 99.8387 5.80645 98.629 4.59677C97.4193 3.3871 97.0161 3.22581 95.1613 3.22581C93.3064 3.22581 92.9032 3.3871 91.6936 4.59677C90.4839 5.80645 90.3226 6.20968 90.3226 8.10484C90.3226 10.0403 90.4435 10.3226 91.9355 11.7339C93.75 13.4677 93.9113 14.1532 92.7419 15.3226C92.0161 16.0484 91.4113 16.129 86.0484 16.129H80.1613L78.7903 17.5C77.621 18.6694 77.4193 19.1532 77.4193 20.7258V22.5806H74.1935V10.0403L75.8064 8.50806C77.2984 7.09677 77.4193 6.81452 77.4193 4.87903C77.4193 2.98387 77.2581 2.58065 76.0484 1.37097C74.8387 0.16129 74.4355 0 72.5806 0C70.7258 0 70.3226 0.16129 69.1129 1.37097C67.9032 2.58065 67.7419 2.98387 67.7419 4.87903C67.7419 6.81452 67.8629 7.09677 69.3548 8.50806L70.9677 10.0403V22.5806H67.7419V19.9194C67.7419 17.4194 67.6613 17.1774 66.371 15.8871L65 14.5161H32.2581V12.9435C32.2581 11.4919 32.1371 11.3306 31.0484 11.0887C29.6774 10.7661 29.6774 10.8065 30.3226 8.99194C30.8064 7.66129 30.8064 7.62097 27.8226 4.59677C24.7581 1.49194 24.6774 1.49194 22.2984 2.21774C21.5726 2.45968 21.4113 2.29839 21.1694 1.25L20.8871 0H11.371L11.0887 1.20968ZM18.7097 4.1129C19.0323 5.3629 21.6532 6.49194 22.9032 5.92742C23.7097 5.56452 24.0323 5.72581 25.2823 6.97581C26.5323 8.22581 26.6935 8.54839 26.3306 9.35484C25.7661 10.6048 26.8952 13.2258 28.1452 13.5484C28.9516 13.7903 29.0323 14.0323 29.0323 16.129C29.0323 18.2258 28.9516 18.4677 28.1452 18.7097C26.8952 19.0323 25.7661 21.6532 26.3306 22.9032C26.6935 23.7097 26.5323 24.0323 25.2823 25.2823C24.0323 26.5323 23.7097 26.6936 22.9032 26.3306C21.6532 25.7661 19.0323 26.8952 18.7097 28.1048C18.4677 28.9516 18.2258 29.0323 16.129 29.0323C14.0323 29.0323 13.7903 28.9516 13.5484 28.1048C13.2258 26.8952 10.6048 25.7661 9.35484 26.3306C8.54839 26.6936 8.22581 26.5323 6.97581 25.2823C5.72581 24.0323 5.56452 23.7097 5.92742 22.9032C6.49193 21.6532 5.3629 19.0323 4.1129 18.7097C3.30645 18.4677 3.22581 18.2258 3.22581 16.129C3.22581 14.0323 3.30645 13.7903 4.15323 13.5484C5.3629 13.2258 6.49193 10.6048 5.92742 9.35484C5.56452 8.54839 5.72581 8.22581 6.97581 6.97581C8.22581 5.72581 8.54839 5.56452 9.35484 5.92742C10.6048 6.49194 13.2258 5.3629 13.5484 4.1129C13.7903 3.30645 14.0323 3.22581 16.129 3.22581C18.2258 3.22581 18.4677 3.30645 18.7097 4.1129ZM73.7903 3.83065C74.8387 5.12097 73.2661 7.09677 71.8952 6.20968C70.4839 5.32258 70.9677 3.22581 72.5806 3.22581C72.9839 3.22581 73.5081 3.50806 73.7903 3.83065ZM96.371 7.05645C97.4193 8.34677 95.8468 10.3226 94.4758 9.43548C93.0645 8.54839 93.5484 6.45161 95.1613 6.45161C95.5645 6.45161 96.0887 6.73387 96.371 7.05645ZM96.7742 29.0323H48.3871V25.8065H96.7742V29.0323ZM92.3387 32.4194C92.3387 32.5 88.8306 38.5887 84.5161 46.0081L76.7339 59.4758H72.5806H68.4677L62.0161 48.3871C58.4677 42.2984 54.9597 36.1694 54.1532 34.7581L52.7419 32.2581H72.5403C83.4274 32.2581 92.3387 32.3387 92.3387 32.4194ZM54.3548 41.0081C55.0403 42.2984 56.2903 44.4758 57.0564 45.8468L58.5081 48.3871H3.22581V44.0323C3.22581 41.1694 3.3871 39.5161 3.70968 39.1936C4.07258 38.8306 10.1613 38.7097 28.629 38.7097H53.0242L54.3548 41.0081ZM96.2903 39.1936C96.6129 39.5161 96.7742 41.1694 96.7742 44.0323V48.3871H86.6532L88.1048 45.8468C88.871 44.4758 90.121 42.2984 90.8468 41.0484C92.1371 38.75 92.1774 38.7097 93.9919 38.7097C95 38.7097 96.0081 38.9113 96.2903 39.1936ZM63.2661 56.5323L66.129 61.4919V74.1936H67.6613C68.5081 74.1936 71.25 73.3871 74.0726 72.2984L79.0322 70.3629V61.4919L81.8952 56.5323L84.7581 51.6129H96.7742V73.7097C96.7742 90.3629 96.6532 95.9274 96.2903 96.2903C95.6048 96.9758 4.39516 96.9758 3.70968 96.2903C3.34677 95.9274 3.22581 90.3629 3.22581 73.7097V51.6129H60.4032L63.2661 56.5323ZM75.8064 65.6855C75.8064 68.3468 75.7661 68.4677 74.7177 68.871C74.0726 69.0726 72.621 69.6371 71.4919 70.121L69.3548 70.9677V62.9032H75.8064V65.6855Z" fill="#151515"/>
<path d="M15.121 8.26613C14.9194 8.34678 14.2339 8.50807 13.629 8.62904C12.2177 8.95162 9.83871 11.0081 8.99193 12.6613C8.18548 14.1532 8.14516 17.9436 8.87097 19.3548C10.3629 22.2984 12.9435 23.9113 16.129 23.9113C19.3145 23.9113 21.8952 22.2984 23.3871 19.3548C24.1129 17.9839 24.0726 14.1532 23.3065 12.7016C22.5806 11.371 20.8065 9.59678 19.5565 8.95162C18.629 8.50807 15.7258 8.0242 15.121 8.26613ZM19.1935 13.0645C21.129 15 21.129 17.2581 19.1935 19.1936C18.0645 20.3226 17.5 20.5645 16.129 20.5645C14.7581 20.5645 14.1935 20.3226 13.0645 19.1936C11.9355 18.0645 11.6935 17.5 11.6935 16.129C11.6935 14.7581 11.9355 14.1936 13.0645 13.0645C14.1935 11.9355 14.7581 11.6936 16.129 11.6936C17.5 11.6936 18.0645 11.9355 19.1935 13.0645Z" fill="#151515"/>
<path d="M82.9032 35.9677C82.5807 36.4919 80.7661 39.5968 78.8306 42.9436L75.3226 48.9919L76.2097 49.6774C76.6936 50.0806 77.2984 50.4032 77.5807 50.4032C78.0242 50.4032 85.8871 37.1774 85.8871 36.4113C85.8871 36.0887 84.1936 35.0806 83.6694 35.0806C83.5484 35.0806 83.2258 35.4839 82.9032 35.9677Z" fill="#151515"/>
<path d="M72.4193 54.1129C71.6532 55.3629 71.6532 55.3629 72.5806 56.129C73.871 57.1774 74.3548 57.0565 75.121 55.4436C75.7661 54.1129 75.7661 54.0323 74.879 53.4274C73.629 52.5403 73.2661 52.6613 72.4193 54.1129Z" fill="#151515"/>
<path d="M6.45161 45.1613H9.67742V41.9355H6.45161V45.1613Z" fill="#151515"/>
<path d="M12.9032 45.1613H16.129V41.9355H12.9032V45.1613Z" fill="#151515"/>
<path d="M19.3548 45.1613H22.5806V41.9355H19.3548V45.1613Z" fill="#151515"/>
<path d="M6.45161 80.6452H51.6129V54.8387H6.45161V80.6452ZM48.3871 77.4194H9.67742V58.0645H48.3871V77.4194Z" fill="#151515"/>
<path d="M54.8387 80.6452H58.0645V77.4194H54.8387V80.6452Z" fill="#151515"/>
<path d="M61.2903 80.6452H93.5484V77.4194H61.2903V80.6452Z" fill="#151515"/>
<path d="M6.45161 93.5484H19.3548V83.871H6.45161V93.5484ZM16.129 90.3226H9.67742V87.0968H16.129V90.3226Z" fill="#151515"/>
<path d="M22.5806 93.5484H35.4839V83.871H22.5806V93.5484ZM32.2581 90.3226H25.8065V87.0968H32.2581V90.3226Z" fill="#151515"/>
<path d="M38.7097 93.5484H51.6129V83.871H38.7097V93.5484ZM48.3871 90.3226H41.9355V87.0968H48.3871V90.3226Z" fill="#151515"/>
<path d="M54.8387 87.0968H93.5484V83.871H54.8387V87.0968Z" fill="#151515"/>
<path d="M54.8387 93.5484H93.5484V90.3226H54.8387V93.5484Z" fill="#151515"/>
<path d="M13.871 4.19355C13.5887 5.44355 10.5242 6.73387 9.35484 6.08871C8.70968 5.76613 8.34677 5.96774 7.1371 7.17742C5.96774 8.3871 5.76613 8.83065 6.08871 9.39516C6.73387 10.4839 5.40323 13.5887 4.19355 13.871C3.34677 14.1129 3.22581 14.3548 3.22581 16.129C3.22581 17.9032 3.34677 18.1452 4.19355 18.3871C5.40323 18.6694 6.73387 21.7742 6.08871 22.8629C5.76613 23.4274 5.96774 23.871 7.1371 25.0806C8.34677 26.2903 8.70968 26.4919 9.35484 26.1694C10.5242 25.5242 13.5887 26.8145 13.871 28.0645C14.1129 28.9113 14.3548 29.0323 16.129 29.0323C17.9032 29.0323 18.1452 28.9113 18.3871 28.0645C18.6694 26.8145 21.7339 25.5242 22.9032 26.1694C23.5484 26.4919 23.9113 26.2903 25.121 25.0806C26.2903 23.871 26.4919 23.4274 26.1694 22.8629C25.5242 21.7742 26.8548 18.6694 28.0645 18.3871C28.9113 18.1452 29.0323 17.9032 29.0323 16.129C29.0323 14.3548 28.9113 14.1129 28.0645 13.871C26.8145 13.5887 25.5242 10.5242 26.1694 9.35484C26.4919 8.70968 26.2903 8.34678 25.0806 7.1371C23.871 5.96774 23.4274 5.76613 22.8629 6.08871C21.7742 6.73387 18.6694 5.40323 18.3871 4.19355C18.1452 3.34678 17.9032 3.22581 16.129 3.22581C14.3548 3.22581 14.1129 3.34678 13.871 4.19355ZM19.6774 8.83065C22.5806 10.3226 24.1935 12.9436 24.1935 16.129C24.1935 20.6855 20.6855 24.1936 16.129 24.1936C7.5 24.1936 4.95968 12.8226 12.7016 8.75C14.3952 7.82258 17.8226 7.90323 19.6774 8.83065Z" fill="#ECC115"/>
<path d="M71.5323 4.19355C71.129 5.24194 71.6936 6.12904 72.6613 5.96775C73.3468 5.8871 73.5887 5.56452 73.5887 4.83871C73.5887 4.11291 73.3468 3.79033 72.6613 3.70968C72.1371 3.62904 71.6532 3.83065 71.5323 4.19355Z" fill="#EC966B"/>
<path d="M94.1129 7.41936C93.7097 8.46775 94.2742 9.35484 95.2419 9.19355C95.9274 9.11291 96.1694 8.79033 96.1694 8.06452C96.1694 7.33871 95.9274 7.01613 95.2419 6.93549C94.7178 6.85484 94.2339 7.05646 94.1129 7.41936Z" fill="#EC966B"/>
<path d="M9.67742 77.4194H48.3871V58.0645H9.67742V77.4194Z" fill="#EC966B"/>
<path d="M48.3871 29.0323H96.7742V25.8065H48.3871V29.0323Z" fill="#96C16B"/>
<path d="M53.2258 32.4194C53.2258 32.5 56.7339 38.629 61.0081 46.0081L68.7903 59.4758H72.5806H76.371L84.1532 46.0081C88.4274 38.629 91.9355 32.5 91.9355 32.4194C91.9355 32.3387 83.2258 32.2581 72.5806 32.2581C61.9355 32.2581 53.2258 32.3387 53.2258 32.4194ZM85.0806 35.2823C85.7661 35.6452 86.2903 36.0887 86.2903 36.3306C86.2903 37.0968 78.1452 50.8065 77.6613 50.8065C77.2984 50.8065 75.9677 50.0806 75.0403 49.3548C74.7984 49.1532 83.1855 34.6774 83.5887 34.6774C83.75 34.6774 84.4355 34.9597 85.0806 35.2823ZM75 53.1048C75.5645 53.4677 76.0484 53.7903 76.129 53.871C76.25 53.9516 75.3629 55.7258 74.6371 56.8145C74.3145 57.3387 74.0323 57.2984 72.8226 56.6532C71.129 55.7258 71.0887 55.5645 72.2177 53.7903C73.1452 52.2581 73.5887 52.1371 75 53.1048Z" fill="#C1EC6B"/>
<path d="M69.3548 66.7742C69.3548 69.7177 69.4758 70.6048 69.879 70.4436C70.121 70.3226 71.5726 69.7581 73.1048 69.1532L75.8064 68.0645L75.8064 62.9032H69.3548V66.7742Z" fill="#C1EC6B"/>
<path d="M4.03226 39.5161C3.34677 40.2016 3.22581 40.8468 3.22581 44.3548L3.22581 48.3871H58.1452L56.8952 46.25C56.2097 45.121 54.9597 42.9436 54.1129 41.4516L52.621 38.7097H28.75C5.3629 38.7097 4.83871 38.7097 4.03226 39.5161ZM9.67742 45.1613H6.45161V41.9355H9.67742V45.1613ZM16.129 45.1613H12.9032V41.9355H16.129V45.1613ZM22.5806 45.1613H19.3548V41.9355H22.5806V45.1613Z" fill="#ECEC6B"/>
<path d="M91.0484 41.4516C90.2016 42.9436 88.9919 45.121 88.3064 46.25L87.0968 48.3871H96.7742L96.7742 44.3548C96.7742 39.7581 96.25 38.7097 93.871 38.7097C92.6613 38.7097 92.4194 38.9516 91.0484 41.4516Z" fill="#ECEC6B"/>
<path d="M9.67742 90.3226H16.129V87.0968H9.67742V90.3226Z" fill="#ECEC6B"/>
<path d="M41.9355 90.3226H48.3871V87.0968H41.9355V90.3226Z" fill="#ECEC6B"/>
<path d="M3.22581 73.5081C3.22581 94.2339 3.26613 95.4839 3.95161 96.0887C4.6371 96.7339 8.42742 96.7742 50.0806 96.7742C93.5081 96.7742 95.4839 96.7339 96.0887 96.0484C96.6936 95.3629 96.7742 93.2258 96.7742 73.4274V51.5726L85 51.8145L82.1371 56.6532L79.2339 61.4919L78.8306 70.7258L74.5968 72.4597C71.5323 73.6694 69.7581 74.1532 68.2661 74.1936H66.129L66.129 68.0242L66.0887 61.8952L63.1452 56.8548L60.1613 51.8145L31.6935 51.6935L3.22581 51.6129L3.22581 73.5081ZM51.6129 80.6452H6.45161V54.8387H51.6129V80.6452ZM58.0645 80.6452H54.8387V77.4194H58.0645V80.6452ZM93.5484 80.6452H61.2903V77.4194H93.5484V80.6452ZM19.3548 93.5484H6.45161V83.871H19.3548V93.5484ZM35.4839 93.5484H22.5806V83.871H35.4839V93.5484ZM51.6129 93.5484H38.7097V83.871H51.6129V93.5484ZM93.5484 87.0968H54.8387V83.871H93.5484V87.0968ZM93.5484 93.5484H54.8387V90.3226H93.5484V93.5484Z" fill="#ECECEC"/>
</svg>
