<svg width="100" height="100" viewBox="0 0 100 100" fill="none" xmlns="http://www.w3.org/2000/svg">
<path d="M19.5974 0.396716C18.9147 0.597509 17.9107 1.2802 17.3886 1.92274C16.4248 3.04718 16.3445 3.04718 11.2042 3.24797C4.57807 3.48892 2.73078 4.29209 0.843329 7.78589L0 9.39223V84.4887L1.08428 86.3762C1.68666 87.3801 2.89142 88.6652 3.69459 89.1872L5.22061 90.1109L48.1501 90.5125L48.4714 91.7975C48.9533 93.685 50.8809 95.1307 52.929 95.1307C54.455 95.1307 54.6959 95.2512 55.4188 96.6166C57.8685 101.154 64.856 101.114 67.0246 96.5764L67.7073 95.1307H80.3171L81.1203 96.6166C83.5699 101.154 90.5575 101.114 92.7261 96.5764C93.3686 95.211 93.5293 95.1307 95.2159 95.1307C96.7821 95.1307 97.264 94.9299 98.4286 93.7653L99.794 92.3999V73.3246L96.9829 69.5497L94.1718 65.815H86.9432V29.351L88.4291 29.0699C92.3245 28.3471 96.7018 24.8934 98.5892 21.0382C99.4727 19.3114 99.5932 18.4681 99.5932 14.8136C99.5932 10.9986 99.4727 10.356 98.4688 8.30795C97.023 5.33622 93.6899 2.28417 90.6378 1.15973C87.4653 -0.0450277 83.1683 -0.00486913 79.9155 1.19989C76.6225 2.4448 72.9681 6.05907 71.7633 9.31191C71.2814 10.597 70.8798 11.8821 70.8798 12.2033C70.8798 12.6852 70.2373 12.8057 67.6671 12.8057H64.4545V11.0789C64.4545 8.5489 63.0088 6.01891 60.6796 4.61336C58.9126 3.48892 58.511 3.40861 53.5313 3.24797C48.3107 3.04718 48.2304 3.04718 47.3068 1.92274C46.7445 1.2802 45.6603 0.597509 44.8571 0.356558C43.0098 -0.125345 21.4045 -0.125345 19.5974 0.396716ZM44.6965 4.05114C45.339 4.69368 45.339 12.0829 44.6965 12.7254C44.0138 13.4081 20.6415 13.4081 19.9588 12.7254C19.3163 12.0829 19.3163 4.69368 19.9588 4.05114C20.6415 3.36845 44.0138 3.36845 44.6965 4.05114ZM89.7543 4.41257C91.9631 5.41653 94.3324 7.62525 95.497 9.79381C96.1797 11.0789 96.3805 12.0829 96.3805 14.8136C96.3805 18.6689 95.8584 19.9941 93.4088 22.5642C91.2804 24.8131 89.2323 25.7368 85.8991 25.9777C83.4093 26.1383 82.7266 26.0179 80.8793 25.1745C76.5422 23.1264 74.0925 19.4319 74.0925 14.8136C74.1327 10.2757 76.2209 6.78192 80.1565 4.81416C83.2487 3.24797 86.9031 3.1275 89.7543 4.41257ZM16.2642 9.99461H12.8507C9.07583 9.99461 7.71044 10.4364 7.0679 11.8821C6.74664 12.5648 6.62616 22.8453 6.62616 47.1413V81.4366L8.55377 83.6855L48.391 83.9265V87.099H27.7094C9.95932 87.099 6.82695 87.0187 5.82299 86.4966C3.293 85.1714 3.41348 87.1392 3.41348 46.7397C3.41348 21.5201 3.53395 9.67334 3.85522 9.15128C4.81903 7.30398 6.50568 6.78192 11.5657 6.78192H16.2642V9.99461ZM58.8323 7.3843C61.3221 8.66938 61.2418 7.94652 61.2418 35.0937V59.7912H58.0291L57.9488 35.8567L57.8283 11.9222L56.7039 10.9584C55.6999 10.1151 55.218 9.99461 51.9652 9.99461H48.391V6.78192H53.0093C56.3826 6.78192 57.9889 6.94256 58.8323 7.3843ZM17.2682 14.2514C18.5532 16.2593 19.6777 16.42 32.0064 16.42C38.6727 16.42 44.0138 16.2593 44.8973 15.9782C45.7406 15.7373 46.7445 15.0947 47.2666 14.412C48.1099 13.2474 48.2304 13.2073 51.4832 13.2073H54.8164V59.7912H48.391V80.6736H9.83884V13.2073H13.2122C16.3847 13.2073 16.6256 13.2474 17.2682 14.2514ZM70.8798 17.2231C70.8798 18.9098 72.6066 22.4839 74.3736 24.4517C76.502 26.821 78.7107 28.2266 81.4415 28.9093L83.329 29.351V65.815H80.5179V59.3896H64.4545V16.42H67.6671C70.5987 16.42 70.8798 16.5003 70.8798 17.2231ZM58.0291 69.4292H70.8798V63.0039H77.3052V85.4927H51.6037V63.0039H58.0291V69.4292ZM67.6671 66.2166H61.2418V63.0039H67.6671V66.2166ZM94.6938 72.0395L96.5813 74.6097V85.4927H80.5179V69.4292H86.6621L92.7662 69.4694L94.6938 72.0395ZM55.9007 90.3117C55.1778 91.6369 54.8164 91.918 53.8124 91.918C52.2864 91.918 51.6037 91.2755 51.6037 89.8298C51.6037 88.7053 51.6439 88.7053 54.1739 88.7053H56.744L55.9007 90.3117ZM81.6022 90.3117L80.7187 91.918H67.4664L65.6191 88.7053H82.4455L81.6022 90.3117ZM96.5813 89.8298C96.5813 91.2755 95.8986 91.918 94.4127 91.918C93.3686 91.918 93.0072 91.6369 92.2442 90.3117L91.3205 88.7053H93.971C96.5813 88.7053 96.5813 88.7053 96.5813 89.8298ZM63.4505 91.3156C65.4584 93.2834 64.0529 96.737 61.2418 96.737C59.5551 96.737 58.0291 95.1709 58.0291 93.4842C58.0291 90.5928 61.4024 89.2274 63.4505 91.3156ZM89.152 91.3156C91.1599 93.2834 89.7543 96.737 86.9432 96.737C85.2566 96.737 83.7306 95.1709 83.7306 93.4842C83.7306 90.5928 87.1039 89.2274 89.152 91.3156Z" fill="#151515"/>
<path d="M86.2606 13.2876L82.1644 17.3838L80.0761 15.4562L77.9076 17.6247L80.036 19.713L82.1242 21.8414L92.7261 11.2395L91.7623 10.1954C91.2402 9.63318 90.7181 9.19143 90.5977 9.19143C90.437 9.19143 88.5094 11.0387 86.2606 13.2876Z" fill="#151515"/>
<path d="M20.3202 24.4918L16.1437 30.114L15.1799 29.1904L14.2161 28.3069L13.172 29.3912L12.0877 30.4755L14.0555 32.4834C15.1398 33.5677 16.1437 34.4913 16.3044 34.4913C16.465 34.4913 18.9147 31.3589 21.8061 27.5037L27.0267 20.5563L25.9023 19.6728C25.2597 19.2311 24.6975 18.8295 24.6172 18.8295C24.5369 18.8696 22.6093 21.3996 20.3202 24.4918Z" fill="#151515"/>
<path d="M30.7213 22.8453H51.6037V19.6327H30.7213V22.8453Z" fill="#151515"/>
<path d="M30.7213 29.2707H45.1784V26.058H30.7213V29.2707Z" fill="#151515"/>
<path d="M48.391 29.2707H51.6037V26.058H48.391V29.2707Z" fill="#151515"/>
<path d="M30.7213 35.6961H51.6037V32.4834H30.7213V35.6961Z" fill="#151515"/>
<path d="M20.3202 43.7679L16.1437 49.3901L15.1799 48.4665L14.2161 47.583L13.172 48.6673L12.0877 49.7516L14.0555 51.7595C15.1398 52.8438 16.1437 53.7674 16.3044 53.7674C16.465 53.7674 18.9147 50.635 21.8061 46.7798L27.0267 39.8324L25.9023 38.9489C25.2597 38.5072 24.6975 38.1056 24.6172 38.1056C24.5369 38.1457 22.6093 40.6757 20.3202 43.7679Z" fill="#151515"/>
<path d="M30.7213 42.1214H51.6037V38.9088H30.7213V42.1214Z" fill="#151515"/>
<path d="M30.7213 48.5468H45.1784V45.3341H30.7213V48.5468Z" fill="#151515"/>
<path d="M48.391 48.5468H51.6037V45.3341H48.391V48.5468Z" fill="#151515"/>
<path d="M30.7213 54.9722H51.6037V51.7595H30.7213V54.9722Z" fill="#151515"/>
<path d="M13.0515 77.461H32.3276V61.3975H13.0515V77.461ZM29.1149 74.2483H16.2642V64.6102H29.1149V74.2483Z" fill="#151515"/>
<path d="M35.5403 64.6102H45.1784V61.3975H35.5403V64.6102Z" fill="#151515"/>
<path d="M35.5403 71.0356H45.1784V67.8229H35.5403V71.0356Z" fill="#151515"/>
<path d="M35.5403 77.461H45.1784V74.2483H35.5403V77.461Z" fill="#151515"/>
<path d="M87.3448 16.7011L81.9234 22.243L87.4653 16.8216C90.4772 13.8498 92.967 11.36 92.967 11.3198C92.967 10.9986 92.3646 11.6009 87.3448 16.7011Z" fill="#EC6B6B"/>
<path d="M96.1797 85.0911L88.2685 85.2115L80.3171 85.2919L88.2685 85.4123C94.493 85.4927 96.26 85.3722 96.4207 84.9706C96.501 84.6895 96.5411 82.1997 96.4608 79.4287L96.3403 74.4491L96.1797 85.0911Z" fill="#EC6B6B"/>
<path d="M51.6037 85.4927H77.3052V63.0039H70.8798V69.4292H58.0291V63.0039H51.6037V85.4927Z" fill="#C1966B"/>
<path d="M83.2085 4.01098C79.7147 4.81415 76.4217 7.50477 75.0563 10.6773C74.0925 12.9663 74.1728 16.6208 75.2571 19.0303C79.1926 27.9053 91.4008 27.9053 95.4167 19.0704C96.501 16.6609 96.4207 12.7254 95.2159 10.1954C93.0875 5.69764 87.7866 2.96686 83.2085 4.01098ZM91.9631 9.9946L93.1277 11.2395L82.1242 22.243L79.9155 20.0342C78.7107 18.8295 77.7068 17.6649 77.7068 17.4641C77.7068 16.942 79.3533 15.2152 79.8753 15.2152C80.0761 15.2152 80.6785 15.6168 81.2006 16.0987L82.1644 16.9822L86.2605 12.886C88.5094 10.6371 90.437 8.78985 90.5977 8.78985C90.7181 8.78985 91.3205 9.35207 91.9631 9.9946Z" fill="#EC966B"/>
<path d="M80.5179 85.0911H96.1797V74.6097L94.2923 72.0395L92.3646 69.4694L86.4613 69.4292H80.5179V85.0911Z" fill="#EC966B"/>
<path d="M28.7134 73.8065L22.4085 73.9672L16.0634 74.0876L22.4085 74.168C27.348 74.2483 28.7937 74.1278 28.9543 73.7262C29.0346 73.4451 29.0748 71.2364 28.9945 68.7867L28.874 64.4094L28.7134 73.8065Z" fill="#ECC16B"/>
<path d="M16.2642 73.8467H28.7134V64.6102H16.2642V73.8467Z" fill="#ECEC6B"/>
<path d="M6.66632 7.30398C5.90331 7.58509 4.89934 8.30794 4.4576 8.91032C3.61427 10.0348 3.61427 10.2355 3.49379 45.4546C3.41348 64.9315 3.49379 81.6776 3.61427 82.6414C3.81506 83.9265 4.25681 84.7698 5.10013 85.573L6.30489 86.6974H47.9895V83.8863H8.35298L6.42537 81.7981L6.30489 47.5027C6.18442 9.07096 6.06394 10.7978 8.9152 10.0348C9.75853 9.79381 11.646 9.59302 13.172 9.59302H15.8626V6.78192L11.9672 6.82208C9.79869 6.82208 7.42933 7.02287 6.66632 7.30398Z" fill="#6BC1C1"/>
<path d="M48.391 9.5127L52.2061 9.67333C55.4991 9.79381 56.1416 9.95444 57.0251 10.7978L58.0291 11.7214V59.3896H60.8402V9.67333L59.6756 8.46858C58.2299 7.06303 57.0653 6.78192 52.166 6.78192L48.391 6.78192V9.5127Z" fill="#6BC1C1"/>
<path d="M20.1194 4.21178C19.2761 5.05511 19.1958 11.6813 20.0391 12.364C20.4005 12.6852 24.055 12.8057 32.5686 12.7254L44.576 12.6049L44.6965 8.62922C44.7768 6.05907 44.6563 4.49289 44.335 4.13146C43.9736 3.68972 41.7247 3.56924 32.2875 3.56924C22.3281 3.56924 20.6415 3.64956 20.1194 4.21178Z" fill="#96C1C1"/>
<path d="M9.83884 80.6736H47.9895V59.7912H54.4148V13.2073H51.2423C48.3509 13.2073 48.0296 13.2876 47.7887 14.0506C47.628 14.4924 46.9453 15.2152 46.2626 15.657C45.0579 16.3798 44.0941 16.42 31.9662 16.42H18.9548L17.4288 14.8136C15.9028 13.2073 15.8626 13.2073 12.8507 13.2073L9.83884 13.2073V80.6736ZM26.5046 19.8334C27.1873 20.3957 27.2275 20.5563 26.7456 21.3595C25.5007 23.3272 16.6256 34.8929 16.3445 34.8929C16.1839 34.8929 15.0595 33.8889 13.8547 32.6842L11.6861 30.4755L12.9311 29.1904L14.2161 27.9053L15.1799 28.7888L16.1036 29.6723L20.2801 24.0501C24.6573 18.1468 24.4967 18.2673 26.5046 19.8334ZM51.6037 22.8453L30.3197 22.8453V19.6327L51.6037 19.6327V22.8453ZM45.1784 29.2707H30.3197V26.058H45.1784V29.2707ZM51.6037 29.2707H47.9895V26.058H51.6037V29.2707ZM51.6037 35.6961H30.3197V32.4834H51.6037V35.6961ZM26.5046 39.1095C27.1873 39.6718 27.2275 39.8324 26.7456 40.6356C25.5007 42.6033 16.6256 54.169 16.3445 54.169C16.1839 54.169 15.0595 53.165 13.8547 51.9603L11.6861 49.7516L12.9311 48.4665L14.2161 47.1814L15.1799 48.0649L16.1036 48.9484L20.2801 43.3262C24.6573 37.4229 24.4967 37.5434 26.5046 39.1095ZM51.6037 42.1214H30.3197V38.9088H51.6037V42.1214ZM45.1784 48.5468H30.3197V45.3341H45.1784V48.5468ZM51.6037 48.5468H47.9895V45.3341H51.6037V48.5468ZM51.6037 54.9722H30.3197V51.7595H51.6037V54.9722ZM32.3276 77.461H12.6499V61.3975H32.3276V77.461ZM45.1784 64.6102H35.1387V61.3975H45.1784V64.6102ZM45.1784 71.0356H35.1387V67.8229H45.1784V71.0356ZM45.1784 77.461H35.1387V74.2483H45.1784V77.461Z" fill="#ECECEC"/>
</svg>
