<svg width="91" height="100" viewBox="0 0 91 100" fill="none" xmlns="http://www.w3.org/2000/svg">
<path d="M39.9418 3.00984C38.1895 4.65076 28.6496 13.9102 18.7202 23.5995C-0.593409 42.4701 -0.437652 42.2747 0.185367 45.5175C0.886263 49.2682 5.09164 51.1045 8.63506 49.2291L10.0758 48.4477V68.9592C10.0758 82.9852 9.95898 89.4708 9.68641 89.4708C9.45278 89.4708 8.82976 89.9005 8.32355 90.4475C7.4669 91.307 7.35009 91.6977 7.35009 94.5498C7.35009 97.5972 7.73947 99.0819 8.674 99.707C9.21914 100.098 81.8009 100.098 82.346 99.707C83.2806 99.0819 83.6699 97.5972 83.6699 94.5498C83.6699 91.6977 83.5531 91.307 82.6965 90.4475C82.1903 89.9005 81.5672 89.4708 81.3336 89.4708C81.061 89.4708 80.9442 82.9852 80.9442 68.9592V48.4477L82.385 49.2291C85.9284 51.1045 90.1338 49.2682 90.8347 45.5175C91.3798 42.5873 90.6789 41.4933 84.4487 35.4376L78.6079 29.8115V24.9279C78.6079 19.419 78.2964 18.6377 76.4663 19.4581C75.5317 19.8879 75.4928 20.0442 75.4928 23.5214V27.1548L71.5989 23.2479L67.7051 19.3409V10.5503H71.5989H75.4928V12.4647C75.4928 14.0274 75.6486 14.5354 76.3495 15.0042C77.7902 16.02 78.6079 15.1995 78.6079 12.6991C78.6079 11.0191 78.7247 10.5503 79.192 10.5503C79.5424 10.5503 80.2433 10.1205 80.7495 9.57352C81.6451 8.71399 81.723 8.32329 81.723 5.35401C81.723 2.61914 81.6062 1.87682 80.9053 1.01729L80.1265 0.00148047H71.56C61.0466 0.00148047 61.4749 -0.232937 61.4749 5.19773C61.4749 8.51864 61.5528 8.94841 62.3705 9.69073C62.8767 10.1596 63.5776 10.5503 63.928 10.5503C64.4732 10.5503 64.59 10.98 64.59 13.3633V16.2153L58.866 10.5112C55.673 7.4247 51.9349 3.75216 50.4942 2.42379C47.9242 0.00148033 47.9242 0.00148047 45.549 0.00148047H43.1737L39.9418 3.00984ZM49.326 5.54936C54.427 10.4331 81.7619 37.0785 84.9549 40.2431C87.1744 42.4701 87.9532 43.525 87.9532 44.3064C87.9532 45.6738 86.6682 46.8849 85.2275 46.8849C84.1761 46.8849 81.6451 44.5798 65.3298 28.6004C55.0111 18.5595 46.3667 10.1986 46.0552 10.0424C45.7436 9.88608 45.2764 9.88608 44.9649 10.0424C44.6534 10.1986 36.1258 18.4423 26.0407 28.3269C15.9166 38.2115 7.27221 46.4552 6.76601 46.6505C4.62438 47.5101 2.52169 45.5956 3.30046 43.564C3.49516 43.0171 11.7112 34.7343 21.6017 25.0841C45.3932 1.91589 44.5365 2.73635 45.51 2.73635C46.0552 2.73635 47.4959 3.8303 49.326 5.54936ZM78.6079 7.4247H64.59V2.73635H78.6079V7.4247ZM61.7864 28.952L77.8291 44.5798V89.8615H43.5631V48.4868L42.5507 47.7054C41.6551 47.0022 40.9542 46.8849 37.9559 46.8849C34.101 46.8849 32.8549 47.3538 33.1275 48.6821C33.2443 49.3463 33.6726 49.4245 37.0603 49.5417L40.8374 49.6589V54.3082L31.0248 54.23L21.1733 54.1128L20.9397 49.6589L24.7557 49.5417C28.338 49.4245 28.5717 49.3854 28.6885 48.5649C28.8832 47.1975 27.5593 46.8068 23.4318 46.9631C17.7467 47.1584 18.2529 44.9705 18.2529 69.389V89.8615H13.1909V44.6189L29.2336 28.952C38.0727 20.3176 45.3932 13.2851 45.51 13.2851C45.6268 13.2851 52.9862 20.3176 61.7864 28.952ZM40.8374 89.8615L31.0248 89.7833L21.1733 89.6661L21.0565 73.335L20.9786 57.043H30.908H40.8374V89.8615ZM80.5548 97.2847H10.4652V92.5963H80.5548V97.2847Z" fill="#151515"/>
<path d="M48.5083 47.6663L47.4569 48.4868V66.0681C47.4569 83.1024 47.4959 83.6494 48.2357 84.3917C48.9756 85.134 49.5207 85.1731 59.8784 85.1731C70.2361 85.1731 70.7423 85.134 71.7547 84.3526L72.7671 83.5713V66.2244C72.7671 49.7761 72.7282 48.8775 72.0273 48.018L71.2874 47.0803L60.4235 46.9631C49.8711 46.8459 49.5207 46.8849 48.5083 47.6663ZM70.0414 54.3082H50.1827V49.6198H70.0414V54.3082ZM58.7881 68.3732H50.1827V62.7863C50.1827 59.6998 50.2995 57.043 50.4552 56.8867C50.611 56.7305 52.48 56.6914 54.6217 56.7305L58.5545 56.8477L58.7881 68.3732ZM70.0803 68.3732H61.4749V62.7863C61.4749 59.6998 61.5917 57.043 61.7474 56.8867C61.9032 56.7305 63.7723 56.6914 65.9139 56.7305L69.8467 56.8477L70.0803 68.3732ZM58.7492 82.4382H50.1827V71.1081H58.7492V82.4382ZM70.0414 82.4382H61.4749V71.1081H65.7581H70.0414V82.4382Z" fill="#151515"/>
<path d="M33.2443 67.0839C32.0372 67.3965 30.4407 69.1155 30.1682 70.3657C29.8956 71.8504 30.7133 73.9211 31.9204 74.7806C32.4266 75.1322 33.5558 75.4057 34.4514 75.4057C38.9683 75.4057 40.1365 69.1155 35.9311 67.3574C34.5682 66.7713 34.5293 66.7713 33.2443 67.0839ZM35.3859 70.0923C35.6196 70.4048 35.7753 71.069 35.6975 71.5769C35.6196 72.2802 35.347 72.4755 34.4514 72.4755C32.8939 72.4755 32.2709 71.4206 33.2054 70.3657C34.062 69.389 34.724 69.3499 35.3859 70.0923Z" fill="#151515"/>
<path d="M54.0765 10.2377C55.673 11.9958 56.0235 12.3084 56.0235 11.9958C56.0235 11.9177 55.2057 11.0972 54.1933 10.1596L52.3243 8.40144L54.0765 10.2377Z" fill="#401515"/>
<path d="M36.3594 10.6284L34.8019 12.3084L36.4762 10.7456C37.9948 9.33911 38.3064 8.98748 37.9948 8.98748C37.917 8.98748 37.1771 9.7298 36.3594 10.6284Z" fill="#401515"/>
<path d="M36.1647 18.1688C35.2302 19.1456 34.5293 19.927 34.6461 19.927C34.7629 19.927 35.6196 19.1456 36.5541 18.1688C37.4886 17.1921 38.1895 16.4107 38.0727 16.4107C37.9559 16.4107 37.0993 17.1921 36.1647 18.1688Z" fill="#401515"/>
<path d="M54.4659 18.0516C56.0624 19.8097 56.4128 20.1223 56.4128 19.8097C56.4128 19.7316 55.5951 18.9111 54.5827 17.9735L52.7137 16.2154L54.4659 18.0516Z" fill="#401515"/>
<path d="M68.0945 23.912C69.6909 25.6702 70.0414 25.9827 70.0414 25.6702C70.0414 25.592 69.2237 24.7716 68.2113 23.8339L66.3422 22.0758L68.0945 23.912Z" fill="#401515"/>
<path d="M21.9521 24.6934L20.3946 26.3734L22.0689 24.8106C23.5875 23.4041 23.899 23.0525 23.5875 23.0525C23.5096 23.0525 22.7698 23.7948 21.9521 24.6934Z" fill="#401515"/>
<path d="M21.7574 32.2339C20.8229 33.2106 20.122 33.992 20.2388 33.992C20.3556 33.992 21.2123 33.2106 22.1468 32.2339C23.0813 31.2571 23.7822 30.4757 23.6654 30.4757C23.5486 30.4757 22.6919 31.2571 21.7574 32.2339Z" fill="#401515"/>
<path d="M68.4838 31.8432C69.2237 32.5855 69.8856 33.2106 70.0024 33.2106C70.1193 33.2106 69.6131 32.5855 68.8732 31.8432C68.1334 31.1008 67.4714 30.4757 67.3546 30.4757C67.2378 30.4757 67.744 31.1008 68.4838 31.8432Z" fill="#401515"/>
<path d="M82.5018 37.9771C84.0983 39.7352 84.4487 40.0478 84.4487 39.7352C84.4487 39.6571 83.631 38.8366 82.6186 37.8989L80.7495 36.1408L82.5018 37.9771Z" fill="#401515"/>
<path d="M7.54478 38.7585L5.98723 40.4385L7.6616 38.8757C9.18021 37.4692 9.49172 37.1176 9.18021 37.1176C9.10233 37.1176 8.36249 37.8599 7.54478 38.7585Z" fill="#401515"/>
<path d="M8.28462 45.4003L7.15539 46.6896L8.44037 45.5566C9.10233 44.8924 9.68641 44.3454 9.68641 44.2673C9.68641 43.9547 9.3749 44.2282 8.28462 45.4003Z" fill="#401515"/>
<path d="M26.1575 54.191C28.8832 54.2691 33.3222 54.2691 36.0868 54.191C38.8126 54.1519 36.5541 54.0737 31.1027 54.0737C25.6513 54.0737 23.3928 54.1519 26.1575 54.191Z" fill="#401515"/>
<path d="M22.8477 89.7442C23.7433 89.8224 25.1451 89.8224 25.9628 89.7442C26.7416 89.6661 26.0017 89.588 24.2884 89.588C22.5751 89.588 21.9132 89.6661 22.8477 89.7442Z" fill="#401515"/>
<path d="M68.0166 3.00984C69.9635 3.08798 73.2344 3.08798 75.2202 3.00984C77.1672 2.97077 75.5707 2.89263 71.5989 2.89263C67.6272 2.89263 66.0307 2.97077 68.0166 3.00984Z" fill="#404040"/>
<path d="M67.7051 19.3409L71.5989 23.2479C75.376 26.9985 75.4928 27.1158 75.4928 25.9437C75.4928 25.006 75.0255 24.2637 73.3512 22.5837L71.2096 20.4349V10.5503L67.7051 10.5503V19.3409Z" fill="#404040"/>
<path d="M52.7137 20.3176C53.5314 21.1772 54.3102 21.8804 54.427 21.8804C54.5438 21.8804 53.9208 21.1772 53.1031 20.3176C52.2853 19.4581 51.5066 18.7549 51.3898 18.7549C51.2729 18.7549 51.896 19.4581 52.7137 20.3176Z" fill="#404040"/>
<path d="M66.9263 34.1873C67.6661 34.9297 68.3281 35.5548 68.4449 35.5548C68.5617 35.5548 68.0555 34.9297 67.3157 34.1873C66.5758 33.445 65.9139 32.8199 65.7971 32.8199C65.6803 32.8199 66.1865 33.445 66.9263 34.1873Z" fill="#404040"/>
<path d="M36.7488 10.6284L33.6337 13.8712L36.8656 10.7456C39.825 7.85446 40.2533 7.4247 39.9418 7.4247C39.9028 7.4247 38.4621 8.87027 36.7488 10.6284Z" fill="#EC4040"/>
<path d="M35.3859 18.6377L32.0762 22.0758L35.5028 18.7549C37.3718 16.9577 38.8904 15.3949 38.8904 15.3558C38.8904 15.0433 38.4621 15.473 35.3859 18.6377Z" fill="#EC4040"/>
<path d="M22.5362 24.4981L19.2264 27.9362L22.653 24.6153C24.5221 22.8181 26.0407 21.2553 26.0407 21.2163C26.0407 20.9037 25.6123 21.3335 22.5362 24.4981Z" fill="#EC4040"/>
<path d="M20.7839 32.898L17.6688 36.1408L20.9008 33.0153C23.8601 30.1241 24.2884 29.6943 23.9769 29.6943C23.938 29.6943 22.4972 31.1399 20.7839 32.898Z" fill="#EC4040"/>
<path d="M8.32355 38.3678L5.20846 41.6106L8.44037 38.485C11.3997 35.5938 11.828 35.1641 11.5165 35.1641C11.4776 35.1641 10.0369 36.6097 8.32355 38.3678Z" fill="#EC4040"/>
<path d="M8.51825 44.7361C7.58372 45.7129 6.88282 46.4943 6.99964 46.4943C7.11645 46.4943 7.97311 45.7129 8.90763 44.7361C9.84216 43.7594 10.5431 42.978 10.4262 42.978C10.3094 42.978 9.45278 43.7594 8.51825 44.7361Z" fill="#EC4040"/>
<path d="M21.368 53.9175H26.8194V50.0105H21.368V53.9175Z" fill="#966B40"/>
<path d="M40.5648 51.964C40.5648 53.1361 40.6427 53.644 40.7206 53.0189C40.7984 52.4328 40.7984 51.4951 40.7206 50.87C40.6427 50.284 40.5648 50.7919 40.5648 51.964Z" fill="#966B40"/>
<path d="M21.368 89.4708H40.448V57.043L30.908 57.043L21.368 57.043V89.4708ZM36.7877 67.5527C38.2285 68.4123 39.0851 70.6002 38.6957 72.202C38.3453 73.6867 36.632 75.3666 35.1913 75.6401C33.478 75.9527 31.2974 74.9369 30.5576 73.4913C28.338 69.2327 32.7381 65.0523 36.7877 67.5527Z" fill="#966B40"/>
<path d="M39.3188 8.32329C36.3984 11.1754 27.2867 20.0832 19.0317 28.1316C10.7767 36.1799 3.88454 43.0561 3.68985 43.4077C2.75532 45.3222 5.01377 47.471 6.76601 46.338C7.23327 46.0254 14.4759 39.1101 22.7698 30.9836C44.1472 10.1205 45.0427 9.26096 45.8215 9.57352C46.172 9.7298 46.6003 9.847 46.7171 9.88608C46.8339 9.92514 47.6906 9.26096 48.6251 8.4405L50.2995 6.91679L48.3136 5.04145C47.1454 3.90844 45.9773 3.12704 45.4711 3.12704C44.887 3.12704 42.9401 4.76796 39.3188 8.32329Z" fill="#EC406B"/>
<path d="M64.59 7.4247H78.6079V3.12705H64.59V7.4247Z" fill="#6B6B6B"/>
<path d="M71.5989 20.5521L75.1034 23.9902V22.5837C75.1034 20.7083 75.7264 19.1456 76.4663 19.1456C77.5176 19.1456 77.2451 16.0981 76.0769 15.0042C75.2981 14.3009 75.1034 13.7149 75.1034 12.3084V10.5503H71.5989V20.5521Z" fill="#6B6B6B"/>
<path d="M52.2464 89.7442C56.8801 89.8224 64.5121 89.8224 69.1847 89.7442C73.8184 89.7052 70.0024 89.6661 60.6961 89.6661C51.3898 89.6661 47.5738 89.7052 52.2464 89.7442Z" fill="#6B6B6B"/>
<path d="M48.6251 8.4405C47.7685 9.22189 47.0676 10.0033 47.0676 10.1596C47.0676 10.7065 83.7089 46.2989 84.6434 46.6505C86.0452 47.1975 87.5638 46.0645 87.5638 44.4236C87.5638 43.2515 86.0452 41.6496 69.1069 25.0841C58.9439 15.1605 50.5331 7.03401 50.4163 7.03401C50.2995 7.03401 49.4818 7.65911 48.6251 8.4405Z" fill="#EC6B6B"/>
<path d="M17.8635 96.894H80.5548V92.5963H17.8635V96.894Z" fill="#40C196"/>
<path d="M50.572 53.9175H69.652V50.0105H50.572V53.9175Z" fill="#1596EC"/>
<path d="M50.572 67.9825H56.0235V57.043H50.572V67.9825Z" fill="#1596EC"/>
<path d="M50.572 82.0475H56.0235V71.1081H50.572V82.0475Z" fill="#1596EC"/>
<path d="M56.4128 67.9825H58.3598V57.043H56.4128V67.9825Z" fill="#6BC1EC"/>
<path d="M61.8643 67.9825H69.652V57.043H61.8643V67.9825Z" fill="#6BC1EC"/>
<path d="M56.4128 82.0475H58.3598V71.1081H56.4128V82.0475Z" fill="#6BC1EC"/>
<path d="M61.8643 82.0475H69.652V71.1081H65.7581H61.8643V82.0475Z" fill="#6BC1EC"/>
<path d="M29.4673 29.1864L13.5803 44.658V89.4708H17.8635V69.3109C17.8635 49.3073 17.9414 48.018 19.1485 47.1975C19.3821 47.0803 23.5875 43.0171 28.4938 38.2115C33.4001 33.4059 40.1365 26.8423 43.4852 23.5604L49.5986 17.6609L47.6516 15.6684C46.6003 14.5744 45.6268 13.6758 45.51 13.6758C45.3932 13.6758 38.1895 20.6693 29.4673 29.1864Z" fill="#C1ECEC"/>
<path d="M50.572 18.4814C50.572 18.5595 51.1561 19.1065 51.857 19.7707L53.1031 20.9037L51.9738 19.6144C50.8835 18.4423 50.572 18.1688 50.572 18.4814Z" fill="#C1ECEC"/>
<path d="M64.9794 32.5464C64.9794 32.6246 65.5634 33.1715 66.2643 33.8357L67.5104 34.9687L66.3811 33.6794C65.2909 32.5074 64.9794 32.2339 64.9794 32.5464Z" fill="#C1ECEC"/>
<path d="M35.2302 31.6478C27.3256 39.3445 20.7061 45.9082 20.5114 46.2598C20.1999 46.8068 20.5892 46.8849 24.2105 46.8849C27.3646 46.8849 28.377 47.0022 28.7664 47.471C29.4283 48.2524 32.3877 48.2524 33.0496 47.471C33.439 47.0022 34.4904 46.8849 37.878 46.8849C40.2533 46.8849 42.3949 47.0412 42.6285 47.1975C43.8746 48.018 43.9525 49.2291 43.9525 69.3109V89.4708H77.4397V44.658L65.4856 32.9762C58.866 26.5297 52.5969 20.4739 51.5455 19.4581L49.5986 17.6609L35.2302 31.6478ZM72.3388 47.9008C73.1565 48.9166 73.1565 49.3463 73.1565 65.8727C73.1565 77.6717 73.0397 83.1024 72.7282 83.7666C72.4556 84.3136 71.7547 84.9387 71.0927 85.1731C69.4573 85.7201 50.6889 85.681 49.0534 85.134C48.3136 84.8605 47.6516 84.2745 47.418 83.7275C47.2233 83.1806 47.0676 75.3666 47.0676 65.99C47.0676 49.2682 47.1454 48.018 48.3915 47.1975C48.6251 47.0412 53.9208 46.8849 60.1899 46.8849H71.56L72.3388 47.9008Z" fill="#ECECEC"/>
<path d="M33.5169 70.4048C32.816 71.1081 32.9328 71.8113 33.7895 72.2802C34.3735 72.5536 34.6851 72.5146 35.1523 72.0457C35.6196 71.5769 35.6585 71.2643 35.3859 70.6783C34.9187 69.8188 34.2178 69.7016 33.5169 70.4048Z" fill="#ECECEC"/>
</svg>
