<svg width="84" height="100" viewBox="0 0 84 100" fill="none" xmlns="http://www.w3.org/2000/svg">
<path d="M46.6457 0.760424C45.9414 1.23001 45.1978 2.01266 44.963 2.48225C44.5717 3.34316 44.2978 3.42142 41.4803 3.46055C37.841 3.49969 34.3973 4.55626 31.4233 6.55201C28.6449 8.39123 26.8056 10.5826 25.123 14.0263C23.9099 16.5699 23.7142 17.3917 23.5577 20.7179C23.2837 26.9399 25.0056 31.3228 29.3492 35.3534C31.3841 37.2317 35.2191 39.5406 36.3539 39.5406C36.5496 39.5406 37.6453 41.1059 38.741 43.0625C40.5411 46.1931 40.8933 46.5844 41.8716 46.5844C42.8499 46.5844 43.2021 46.1931 44.963 43.1407C46.6457 40.2058 47.1153 39.658 48.4067 39.1884C53.3374 37.4665 57.9941 32.575 59.4811 27.5269C60.0681 25.5703 59.5985 24.6703 58.1898 24.9442C57.5245 25.0616 57.0158 25.766 56.194 27.6443C54.3157 31.9098 50.872 35.1577 46.5283 36.6056C45.0413 37.1144 44.6109 37.5448 43.5151 39.5406C42.7716 40.8319 42.0673 41.8885 41.8716 41.8885C41.6759 41.8885 40.9715 40.8319 40.228 39.5406C39.2106 37.6622 38.6627 37.1144 37.567 36.7622C30.0928 34.336 25.2795 26.8226 26.5709 19.5048C27.7448 12.8914 32.4407 8.03904 39.0149 6.6694C40.1498 6.43461 41.7151 6.27808 42.5368 6.35635C43.8282 6.47374 44.1021 6.6694 44.9239 8.27383C45.4326 9.29127 47.624 11.874 49.8937 14.1045C53.7678 17.9004 54.0417 18.096 55.4505 17.9395C56.8201 17.8221 56.9375 17.9004 57.0549 18.8787C57.2115 20.0527 58.4637 21.2266 59.2855 20.8744C60.1464 20.5614 60.3029 19.5439 59.8333 17.3525L59.3637 15.2394L62.3378 12.2262C63.9814 10.5826 65.5075 8.70429 65.7032 8.1173C66.7206 5.49543 65.7423 2.52138 63.3944 0.87782C61.203 -0.609208 57.1723 -0.13962 55.5679 1.77786C55.0983 2.32572 54.9418 2.28658 53.9243 1.30828C52.3982 -0.13962 48.6024 -0.452679 46.6457 0.760424ZM52.5938 4.32147C53.533 5.18238 54.5896 5.88676 54.9809 5.88676C55.3722 5.88676 56.4679 5.18238 57.4071 4.28233C58.9333 2.9127 59.3246 2.71704 60.3812 2.9127C61.9465 3.22576 63.003 4.43886 63.003 6.00416C63.003 6.98246 62.2987 7.88251 59.0116 11.2479L54.9809 15.3176L50.9894 11.2479C47.8588 8.07817 46.9588 6.94333 46.9588 6.12155C46.9588 4.1258 48.211 2.83444 50.2068 2.7953C50.559 2.75617 51.6547 3.46055 52.5938 4.32147Z" fill="#151515"/>
<path d="M37.254 15.2394C36.9018 15.435 36.7844 16.2177 36.8626 17.6656C36.98 19.5439 37.0974 19.7787 37.9192 19.8961C39.0932 20.0918 39.5236 19.4265 39.5236 17.3917C39.5236 15.2785 38.5845 14.3785 37.254 15.2394Z" fill="#151515"/>
<path d="M44.6891 15.3568C44.1413 15.9046 44.063 18.7222 44.5717 19.5048C44.7282 19.8179 45.3152 19.9744 45.824 19.8961C46.6457 19.7787 46.7631 19.5439 46.8805 17.6656C46.9588 16.2177 46.8414 15.4351 46.4892 15.2394C45.7848 14.7698 45.237 14.8089 44.6891 15.3568Z" fill="#151515"/>
<path d="M31.6972 20.9527C31.0711 21.7353 31.4233 24.592 32.4407 26.5486C34.0843 29.7966 38.3888 32.4967 41.8716 32.4967C45.3544 32.4967 49.6589 29.7966 51.3025 26.5095C52.3982 24.3963 52.7112 21.4614 51.9286 20.7962C50.872 19.9353 49.8155 20.8744 49.5807 22.9485C48.8371 29.7966 39.4845 32.0272 35.493 26.353C34.8669 25.4529 34.2799 24.0442 34.1625 23.0658C33.8886 20.757 32.7146 19.7396 31.6972 20.9527Z" fill="#151515"/>
<path d="M61.2421 31.7141C58.8159 32.6924 57.5245 36.5274 58.8159 38.9927C59.1289 39.6188 61.0856 41.7711 63.1204 43.7277C65.9771 46.5452 67.0728 47.367 67.8946 47.367C69.499 47.367 76.4254 40.4015 77.0907 38.0927C78.4995 33.3968 73.2166 29.5227 68.9903 32.1054C67.6989 32.8881 67.6989 32.8881 66.4467 32.1054C65.1162 31.2836 62.6509 31.1271 61.2421 31.7141ZM65.7032 35.4317C67.5033 37.0752 68.0511 37.1144 69.3033 35.7839C70.5947 34.3751 71.847 33.9446 72.9035 34.4925C75.2123 35.7447 74.8601 36.8796 71.0252 40.7145L67.6598 44.0408L64.3727 40.6754C62.5335 38.8362 61.0464 36.997 61.0464 36.6448C61.0464 35.823 62.7683 34.062 63.59 34.062C63.9031 34.062 64.8423 34.6881 65.7032 35.4317Z" fill="#151515"/>
<path d="M14.5572 40.7145C12.7571 41.8102 11.7397 43.6886 11.7397 45.9191C11.7397 48.3453 12.3267 49.4019 15.2225 52.2194L17.5704 54.5282L8.76564 61.1416C1.80009 66.4245 0 67.9506 0 68.6941C0 70.0638 1.01744 70.6899 2.38707 70.1812L3.52191 69.7507V97.0651H2.19141C0.665249 97.0651 -0.117397 97.8086 0.0782646 99.1L0.195662 100H83.5475L83.6649 99.1C83.8606 97.8086 83.0779 97.0651 81.5518 97.0651H80.2213V86.7341C80.2213 78.4772 80.1039 76.3249 79.6734 75.9728C79.1256 75.5032 77.8733 75.7771 77.4037 76.4815C77.2472 76.7163 77.0907 81.5295 77.0907 87.1646V97.4564H73.5688V86.9298C73.5688 78.4772 73.4514 76.3249 73.0209 75.9728C72.6687 75.6597 69.7729 75.5423 63.3552 75.6206L54.1983 75.738L54.0809 86.6167L54.0026 97.4955L49.5024 97.2607V67.5202L63.277 67.4028L77.0516 67.3245L77.1689 69.1246C77.2472 70.4551 77.5211 71.0812 78.1081 71.5117C78.8516 71.9813 79.0473 71.9813 79.5952 71.4334C79.9473 71.0421 80.2213 70.142 80.2213 69.242C80.2213 67.7941 80.2604 67.7158 81.5126 67.7158C82.217 67.7158 82.9997 67.5202 83.2736 67.2462C84.565 65.9549 83.8997 65.2896 72.4731 56.6414L61.203 48.1497H33.4581L33.5755 46.1148C33.6929 43.6886 32.832 41.9276 30.8363 40.6754C29.1145 39.6188 25.7099 39.7754 23.949 41.0667L22.6967 41.9276L21.0141 40.9493C18.9009 39.6971 16.3964 39.6188 14.5572 40.7145ZM20.3488 44.4712C22.0315 46.0757 23.0098 46.1539 24.3012 44.7843C26.8839 41.9668 30.5232 42.5146 30.6015 45.6843C30.6797 47.7583 29.9362 48.541 27.9013 48.541C26.2969 48.541 25.7491 48.8149 23.1663 50.7324L20.2314 52.9629L17.5704 50.2237C14.5964 47.1714 14.0485 45.9191 15.0268 44.393C16.3964 42.3581 18.1574 42.3581 20.3488 44.4712ZM68.8338 57.8154L77.482 64.3896L63.003 64.507L48.5241 64.5852L40.3846 58.4806C35.9235 55.0761 32.0102 52.102 31.6972 51.789C31.2276 51.3585 33.4581 51.2803 45.6674 51.2803H60.1855L68.8338 57.8154ZM36.7844 59.2241C46.4109 66.5027 46.7631 66.8549 46.8805 68.2245C46.9588 69.0072 46.9197 69.6724 46.8023 69.6724C46.6849 69.6724 42.1455 66.3071 36.7061 62.2373C31.3059 58.1284 26.6491 54.8413 26.3752 54.9587C25.3969 55.3109 19.214 60.085 18.9792 60.6329C18.7053 61.2981 19.4488 62.2373 20.3097 62.2373C20.701 62.2373 22.2663 61.2981 23.8316 60.1242L26.6491 58.011L34.1625 63.6852C38.3105 66.8158 42.8499 70.2986 44.3369 71.3943L46.9588 73.3509V97.4564H36.7844V85.1688C36.7844 73.3509 36.7453 72.8813 35.9626 71.8639L35.18 70.8464H26.6491C18.4705 70.8464 18.0791 70.8856 17.3748 71.6682C16.6704 72.4508 16.6312 73.3509 16.5138 84.9732L16.3964 97.4955L6.45683 97.2607L6.33944 85.3254L6.26117 73.39L11.1527 69.6724C14.8312 66.8941 16.0443 65.7592 16.0443 65.1331C16.0443 64.5853 15.7312 64.1548 15.2616 63.9983C14.6746 63.8026 13.5007 64.4678 10.6049 66.6984C8.49171 68.3028 6.61336 69.5159 6.49597 69.3985C6.37857 69.242 6.26117 68.655 6.26117 68.068C6.26117 67.0897 7.39601 66.1114 16.3573 59.3024C21.875 55.1152 26.4926 51.6716 26.61 51.6716C26.7274 51.6716 31.3059 55.0761 36.7844 59.2241ZM34.0451 76.7163L26.7274 76.638L19.3705 76.5206L19.2531 75.0336L19.1357 73.5857H34.0451V76.7163ZM59.4811 90.4126H56.7419V78.2816H59.4811V90.4126ZM64.9597 90.4126H62.2204V78.2816H63.59H64.9597V90.4126ZM70.8295 90.4126H67.6989V78.2816H69.2642H70.8295V90.4126ZM34.0451 97.4564L26.7274 97.3781L19.3705 97.2607L19.2531 88.3386L19.1748 79.4555H34.0451V97.4564ZM70.8295 97.4564H56.7419V93.1518H70.8295V97.4564Z" fill="#151515"/>
<path d="M30.3667 84.7775C29.1536 85.9906 29.858 90.0213 31.2667 90.0213C32.0102 90.0213 32.4798 88.8864 32.4798 87.0863C32.4798 84.4253 31.6189 83.4862 30.3667 84.7775Z" fill="#151515"/>
<path d="M48.1328 3.93014C47.6632 4.39973 47.3501 5.22151 47.3501 6.00416C47.3501 7.09986 47.898 7.80424 51.1851 11.0914L55.0201 14.9263L55.9592 13.9089L56.8984 12.9306L53.6896 9.64346C50.7155 6.63028 50.4807 6.23895 50.4807 4.75192C50.4807 3.42142 50.3633 3.1475 49.6981 3.1475C49.2676 3.1475 48.5632 3.49969 48.1328 3.93014Z" fill="#EC4040"/>
<path d="M62.103 35.1577C60.9682 36.41 61.3595 37.31 64.6466 40.5971L67.8555 43.8451L69.8903 41.8885L67.2293 39.2275C65.2727 37.2318 64.5683 36.2534 64.5683 35.5099C64.5683 34.649 64.3727 34.4534 63.6683 34.4534C63.1596 34.4534 62.4552 34.7664 62.103 35.1577Z" fill="#EC4040"/>
<path d="M15.8877 43.8842C14.1268 45.293 14.479 46.6235 17.4922 49.7541C18.9009 51.2411 20.1923 52.4542 20.3097 52.4542C20.4271 52.4542 20.9749 52.102 21.5228 51.6716L22.5011 50.9281L20.701 49.0497C18.5487 46.8192 18.0009 45.88 18.0009 44.2756C18.0009 42.8277 17.3748 42.7103 15.8877 43.8842Z" fill="#EC4040"/>
<path d="M32.0885 51.8281C32.4016 52.102 36.3148 55.1152 40.7759 58.4806L48.9154 64.6244L54.4722 64.3896L48.3284 59.772C44.963 57.2284 42.302 54.9196 42.3803 54.6848C42.4977 54.3326 45.4326 54.176 53.0243 54.0978L63.5118 54.0195L59.6768 51.2803H45.5892C33.6929 51.2803 31.6189 51.3585 32.0885 51.8281Z" fill="#406B6B"/>
<path d="M33.6929 75.0336L33.6538 76.3249L26.5317 76.4423L19.3705 76.5206L26.5317 76.638C34.2017 76.7163 34.319 76.7163 33.9277 74.6814C33.8103 73.977 33.7321 74.0944 33.6929 75.0336Z" fill="#406B6B"/>
<path d="M70.5947 84.3471C70.5947 87.7907 70.673 89.1603 70.7121 87.3603C70.7904 85.5602 70.7904 82.7426 70.7121 81.0991C70.673 79.4555 70.5947 80.9034 70.5947 84.3471Z" fill="#406B6B"/>
<path d="M42.4586 54.4108C42.3412 54.6065 42.302 54.9587 42.4194 55.1152C42.5368 55.3109 45.3544 57.5023 48.6806 60.0068L54.7461 64.5852L65.8988 64.507L77.0907 64.3896L63.4335 54.0195H53.0634C46.5675 54.0195 42.6151 54.176 42.4586 54.4108Z" fill="#6B6B6B"/>
<path d="M53.7678 86.8907C53.7678 92.604 53.8461 94.9128 53.8852 92.0561C53.9635 89.2386 53.9635 84.5427 53.8852 81.6861C53.8461 78.8685 53.7678 81.1774 53.7678 86.8907Z" fill="#6B6B6B"/>
<path d="M50.4807 4.1258C50.4807 5.69109 51.3807 7.02159 54.3548 9.99565L57.1332 12.6958L59.8725 9.99565C62.2987 7.60858 62.6117 7.09986 62.6117 5.80849C62.6117 4.75192 62.3769 4.20407 61.7508 3.77361C60.342 2.75617 59.1289 3.0301 57.2897 4.71279C56.3505 5.5737 55.294 6.27808 54.9809 6.27808C54.6679 6.27808 53.6113 5.5737 52.6721 4.71279C51.7329 3.85188 50.872 3.14749 50.7155 3.14749C50.5981 3.14749 50.4807 3.57795 50.4807 4.1258Z" fill="#EC6B6B"/>
<path d="M69.6947 35.823C68.8729 36.5665 68.012 37.1926 67.7772 37.1926C67.5424 37.1926 66.7206 36.6839 66.0162 36.0187C64.7249 34.8838 64.6857 34.8838 64.8423 35.7839C64.9597 36.2926 66.1728 37.8187 67.5424 39.1884L70.086 41.6928L72.0035 39.658C74.1949 37.4274 74.6254 35.6273 73.2166 34.8447C71.9643 34.1794 71.2991 34.3751 69.6947 35.823Z" fill="#EC6B6B"/>
<path d="M24.8882 44.6278C23.949 45.4887 22.9707 46.1931 22.6967 46.1931C22.4228 46.1931 21.5228 45.5669 20.701 44.8234C19.8401 44.0799 18.9792 43.4538 18.7835 43.4538C18.1183 43.4538 17.9226 44.4321 18.3922 45.6452C18.8226 46.78 22.188 50.4976 22.775 50.4976C22.9707 50.4976 23.8316 49.9498 24.7316 49.3236C25.9056 48.4627 26.7665 48.1497 28.0187 48.1497C29.3101 48.1497 29.8188 47.954 30.1319 47.4062C30.758 46.1539 30.6015 45.0582 29.5449 44.0408C28.1753 42.632 26.8839 42.7885 24.8882 44.6278Z" fill="#EC6B6B"/>
<path d="M22.6967 97.0651H33.6538V79.4555H22.6967V97.0651ZM32.4016 84.621C32.6755 84.8949 32.8712 85.9906 32.8712 87.1255C32.8712 89.356 32.2842 90.1778 30.8363 89.943C30.0145 89.8256 29.9362 89.5908 29.8188 87.5168C29.7406 86.2646 29.7797 84.9732 29.8971 84.6993C30.171 84.034 31.7754 83.9949 32.4016 84.621Z" fill="#EC966B"/>
<path d="M60.2638 97.0651H70.4382V93.5432H60.2638V97.0651Z" fill="#EC966B"/>
<path d="M34.7104 8.46949C29.5058 11.1696 26.1404 17.3525 26.7274 23.105C27.3926 29.2879 31.4233 34.3751 37.0974 36.2143C38.9367 36.8404 39.2497 37.1144 40.3846 39.1884C41.0889 40.4797 41.7542 41.4972 41.8716 41.4972C41.989 41.4972 42.576 40.558 43.2021 39.4232C43.8282 38.3275 44.5326 37.2709 44.7282 37.1535C44.9239 36.997 44.2587 36.6056 43.2412 36.2534C42.2238 35.9404 40.6585 35.1969 39.7584 34.6881C38.0758 33.7098 34.1625 29.7575 32.6364 27.5269C31.4233 25.7268 30.6406 22.2049 31.2276 21.031C31.4624 20.5614 31.7363 19.1917 31.8146 17.9786C32.0885 15.1611 33.3799 12.1088 35.493 9.52606C36.4322 8.39123 37.0583 7.45205 36.9018 7.45205C36.7061 7.49118 35.7278 7.92164 34.7104 8.46949Z" fill="#ECC16B"/>
<path d="M49.1111 13.7132C51.459 16.0612 53.4939 18.0178 53.6113 18.0178C53.6896 18.0178 51.8503 16.0612 49.5024 13.7132C47.1545 11.3262 45.1196 9.40867 45.0022 9.40867C44.9239 9.40867 46.7631 11.3262 49.1111 13.7132Z" fill="#ECC16B"/>
<path d="M38.4671 6.94333C36.08 7.41292 32.1668 13.9089 31.8146 18.0178C31.5798 20.3266 31.5798 20.3657 32.5972 20.3657C33.7712 20.3657 34.4364 21.3049 34.4364 22.9876C34.4364 26.0399 38.3105 29.3661 41.8716 29.3661C45.5109 29.3661 49.3067 26.0399 49.3067 22.9093C49.3067 21.2658 50.0894 20.2483 51.2633 20.444C52.7112 20.6396 53.0243 21.5788 52.4765 24.005C50.8329 31.3619 42.3412 35.0403 36.1974 31.088L34.6321 30.0705L36.5887 32.0663C38.8975 34.4534 42.9282 36.6056 45.0022 36.5665C46.8414 36.4882 50.1676 34.7664 52.3982 32.6924C54.1591 31.0488 55.3331 29.1314 56.5071 26.1182C56.9375 25.1007 57.3289 24.6703 57.8767 24.6703C58.4637 24.6703 58.6985 24.3963 58.6985 23.7702C58.6985 23.3006 58.8159 22.5571 58.9333 22.1267C59.0507 21.5788 58.855 21.2266 58.2289 20.9527C57.7202 20.7179 57.1723 20.0135 56.9767 19.3091C56.6245 18.1743 56.5071 18.096 55.294 18.2917C54.0026 18.5265 53.7287 18.2917 49.3067 13.8698C45.8631 10.4261 44.5717 8.86081 44.3761 7.92164L44.1413 6.6694L41.7151 6.70853C40.4237 6.74767 38.9367 6.86506 38.4671 6.94333ZM39.0932 15.0437C39.3671 15.3959 39.5236 16.5307 39.4454 17.9004C39.328 19.9353 39.2497 20.1701 38.4279 20.2875C37.0192 20.4831 36.3931 19.7005 36.3931 17.5873C36.3931 15.0046 37.8801 13.5958 39.0932 15.0437ZM46.724 15.122C47.5458 15.9046 47.5849 19.3091 46.8023 19.9744C46.4892 20.2092 45.824 20.3657 45.3152 20.2875C44.4935 20.1701 44.4152 19.9353 44.2978 17.9004C44.1413 14.8089 45.1978 13.5958 46.724 15.122Z" fill="#ECEC6B"/>
<path d="M19.2922 57.4632C13.0702 62.159 12.1702 62.9808 12.1702 63.92L12.131 65.0157L13.2659 64.1939C14.0485 63.6461 14.7529 63.4504 15.4181 63.6461C16.7486 63.9591 18.7835 62.433 18.7835 61.0633C18.7835 60.2416 19.4488 59.5372 22.2272 57.424C24.2229 55.8979 26.1013 54.8022 26.61 54.8022C27.197 54.8022 30.9145 57.3458 36.8235 61.846C41.9499 65.7201 46.2153 68.8898 46.3327 68.8898C46.4501 68.8898 46.5675 68.4593 46.5675 67.9898C46.5675 67.2462 44.65 65.6027 36.667 59.5763C31.1885 55.4283 26.6491 52.0629 26.5709 52.0629C26.4926 52.102 23.2055 54.4891 19.2922 57.4632Z" fill="#96C1C1"/>
<path d="M49.6981 97.0651H53.6113V86.5776C53.6113 78.9468 53.7287 75.9727 54.0809 75.6206C54.5896 75.1118 71.7296 74.9162 72.9427 75.3858C73.4905 75.5814 73.5688 76.9511 73.5688 86.3428V97.0651H76.6994V87.0472C76.6994 77.0685 76.895 75.5423 78.069 75.5423C78.4995 75.5423 78.656 75.0727 78.656 73.9379C78.656 72.6856 78.4212 72.1378 77.6777 71.5508C76.9342 70.9638 76.6994 70.416 76.6994 69.242V67.7158H49.6981V97.0651Z" fill="#ECECC1"/>
<path d="M9.11783 71.5508L6.69163 73.39L6.6525 85.208V97.0651H12.131V83.3688C12.131 75.8162 12.0136 69.6724 11.8571 69.7116C11.6614 69.7116 10.4483 70.5334 9.11783 71.5508Z" fill="#ECECC1"/>
<path d="M23.0881 76.3249H33.6538V73.977H23.0881V76.3249Z" fill="#96ECEC"/>
<path d="M56.7419 90.0213H59.4811L59.4811 78.2816H56.7419L56.7419 90.0213Z" fill="#96ECEC"/>
<path d="M62.6117 90.0213H64.5683V78.2816H63.59H62.6117V90.0213Z" fill="#96ECEC"/>
<path d="M68.0902 90.0213H70.4382V78.2816H69.2642H68.0902V90.0213Z" fill="#96ECEC"/>
<path d="M23.6751 60.5155C21.4054 62.3156 20.7401 62.6286 19.8401 62.4721C18.3139 62.159 16.4356 63.5678 16.4356 65.0157C16.4356 65.8375 15.966 66.4245 14.2833 67.6767L12.131 69.3203V97.0651H16.4356V84.621C16.4356 77.812 16.5921 72.0204 16.7486 71.7856C17.4921 70.6507 18.94 70.4551 26.61 70.4551C34.2799 70.4551 35.7278 70.6507 36.4713 71.7856C36.6279 72.0204 36.7844 77.812 36.7844 84.621V97.0651H46.5675V73.39L36.7061 65.9549C31.3059 61.846 26.7665 58.4806 26.6491 58.4415C26.5317 58.4023 25.2012 59.3415 23.6751 60.5155Z" fill="#ECECEC"/>
</svg>
