<svg width="100" height="100" viewBox="0 0 100 100" fill="none" xmlns="http://www.w3.org/2000/svg">
<path d="M3.82812 1.13282C2.77344 1.79688 1.60156 3.00782 1.01562 4.02344L0 5.74219V19.8828C0 35.7031 0 35.6641 2.89062 38.2031C4.84375 39.9219 6.44531 40.2344 13.2812 40.2344H19.3359L21.25 41.6016C22.3047 42.3438 23.3594 42.9688 23.5547 42.9688C23.75 42.9688 25.5078 44.1016 27.3828 45.5078C32.5781 49.2969 33.7109 48.9453 32.6172 43.7891C32.3047 42.2266 32.0312 40.7422 32.0312 40.4297C32.0312 40.0391 33.3594 39.8828 38.2422 39.7656C44.4531 39.6484 44.4531 39.6484 46.1719 38.4766C47.1094 37.8125 48.2812 36.4844 48.8281 35.5469L49.8047 33.7891V5.15625L48.6328 3.47656C48.0078 2.57813 46.6797 1.40625 45.7422 0.89844L44.0234 2.55833e-06H5.625L3.82812 1.13282ZM43.7109 3.82813C44.4531 4.17969 45.4297 5 45.8594 5.58594C46.6406 6.64063 46.6797 7.26563 46.7969 19.5703C46.9141 33.9063 46.8359 34.375 44.3359 35.9375C43.2031 36.6406 42.4219 36.7188 36.25 36.7188C28.0469 36.7188 28.1641 36.6797 28.8281 40.3125C29.0625 41.6406 29.2188 42.7734 29.1797 42.8125C29.1406 42.8516 27.1875 41.5234 24.8047 39.8047L20.5078 36.7578L13.7109 36.7188C7.61719 36.7188 6.79688 36.6406 5.66406 35.9375C3.16406 34.375 3.08594 33.9063 3.20312 19.5703C3.32031 7.26563 3.35938 6.64063 4.14062 5.58594C5.9375 3.125 5.85938 3.125 25 3.125C40.7812 3.125 42.5 3.20313 43.7109 3.82813Z" fill="#151515"/>
<path d="M6.64062 20.1562C6.64062 27.3438 6.79688 31.9922 7.03125 32.4609C7.42188 33.1641 8.04687 33.2031 25.3906 33.2031H43.3594V31.6406V30.0781H9.76562V27.8906C9.76562 25.9375 9.92188 25.4688 11.4453 23.3984C12.3438 22.1484 13.1641 21.0938 13.2812 21.0938C13.3984 21.0938 14.4141 22.3047 15.5469 23.8281C16.875 25.5859 17.8516 26.5625 18.3594 26.5625C18.9062 26.5625 19.9609 25.3516 21.9531 22.2656C23.5156 19.9219 25 18.0078 25.1953 18.0078C25.4297 18.0078 27.1484 19.9219 29.1016 22.3047C31.0156 24.6484 32.8906 26.5625 33.2422 26.5625C33.5938 26.5625 34.1406 26.25 34.4531 25.8594C35.0781 25.1563 42.5781 11.7969 42.6953 11.1719C42.7344 10.9766 42.2266 10.5078 41.5234 10.0781L40.3125 9.33594L38.1641 13.1641C36.9922 15.2734 35.4297 18.0859 34.6875 19.4141C33.9844 20.7812 33.2422 21.875 33.0078 21.8359C32.8125 21.8359 31.1328 20 29.2969 17.7734C27.4609 15.5078 25.7422 13.5938 25.5078 13.5156C24.5313 13.125 23.8672 13.7891 21.0938 17.9688L18.2812 22.2266L16.25 19.6094C15.1562 18.1641 13.9062 16.9141 13.4766 16.8359C12.9688 16.7578 12.2656 17.2656 11.25 18.3984L9.80469 20.1172L9.76562 14.3359V8.59375H6.64062V20.1562Z" fill="#151515"/>
<path d="M57.8125 6.05469L51.7578 12.1484L54.4922 14.4141L65.8203 3.24219L79.4922 4.76562C87.0312 5.625 93.2812 6.44531 93.4375 6.5625C93.5547 6.71875 94.375 13.0078 95.1953 20.5859L96.7188 34.3359L93.2812 37.7734C91.4062 39.6484 89.8438 40.9375 89.8438 40.625C89.8438 40.3125 89.1406 35.4688 88.3203 29.8828L86.7969 19.7656L88.1641 18.5547C89.2578 17.6172 89.5703 17.0312 89.7266 15.5469C90.1172 12.1484 87.6953 9.80469 84.3359 10.2734C81.3672 10.6641 79.4922 13.6719 80.4688 16.5625C80.8594 17.8125 82.1875 19.2578 83.2422 19.6094C83.4375 19.6875 84.1406 23.1641 84.7656 27.3438C85.3906 31.5234 86.0156 35.4688 86.1328 36.1328C86.2891 37.1094 84.2578 35.2344 74.5312 25.5469C68.0078 19.0625 62.3828 13.6719 61.9531 13.5156C61.4063 13.3203 60.2344 14.2578 56.7969 17.6562L52.3438 22.0313L54.4531 24.2188L58.0078 20.7031L61.5234 17.1875L82.8125 38.4766L80.9766 40.3516L79.1016 42.1875L80.1953 43.2422L81.25 44.2969L83.7109 41.875C85.0391 40.5469 86.25 39.4531 86.4062 39.4531C86.5234 39.4531 86.7578 40.4297 86.9141 41.6406C87.1875 43.8281 87.1875 43.8672 85.5469 45.5078C84.4531 46.6016 84.0625 47.2656 84.375 47.4609C84.6094 47.6172 84.9609 48.1641 85.1562 48.6719C85.625 49.8438 86.4844 49.8828 87.2656 48.75C87.6172 48.2812 87.8906 48.0078 87.8906 48.1641C87.8906 49.8047 89.2188 56.6406 89.6875 57.3438C91.4453 60.0391 95.7812 60.5469 98.0469 58.3984C100.234 56.3281 100.234 55.3906 98.4375 46.9141L96.8359 39.3359L98.3984 37.7344C99.7266 36.3672 100 35.8203 100 34.5703C100 31.3281 96.7969 4.10156 96.3672 3.63281C95.8984 3.20312 68.6719 0 65.4297 0C63.9062 0 63.5938 0.234375 57.8125 6.05469ZM86.25 13.75C87.5 15 86.0938 17.1484 84.375 16.6016C83.3984 16.2891 82.9297 14.6484 83.5938 13.8672C84.1797 13.1641 85.5859 13.0859 86.25 13.75ZM95.5078 48.2813C96.9141 54.9219 96.875 56.0547 95.1562 56.4844C92.6953 57.0703 92.1484 56.1719 91.25 49.7656L90.5859 45.4297L92.2656 43.7109C93.2031 42.7734 94.0234 42.0312 94.1016 42.0703C94.1797 42.1094 94.8047 44.9219 95.5078 48.2813Z" fill="#151515"/>
<path d="M53.2031 39.4531C41.6016 42.5 33.5938 52.9688 33.5938 65.0391C33.5938 72.3828 36.0156 78.2422 41.2109 83.3984C45.3516 87.5 46.25 88.2031 49.0625 89.5312C56.7578 93.125 67.9297 92.2656 74.5703 87.5391L75.625 86.7578L81.6797 92.8125C85 96.1719 88.1641 99.1406 88.75 99.4531C89.3359 99.7656 90.6641 100 91.7578 100C94.1406 100 95.8594 98.75 96.5234 96.4844C97.4609 93.3594 97.0312 92.6172 89.7656 85.3125L83.1641 78.5938L84.1797 76.5625C86.5625 71.8359 87.3438 64.9609 86.1328 59.2188C85.5078 56.2891 83.6719 51.9531 82.4219 50.625C82.0312 50.1953 81.0547 49.0625 80.3125 48.125C74.0234 40.4297 63.0078 36.9141 53.2031 39.4531ZM65.625 42.2656C71.9922 43.75 78.125 48.75 81.0156 54.8828C82.7734 58.5547 83.3594 61.2109 83.3203 65.4297C83.2031 75.8594 75.9375 85 65.7422 87.6562C62.6953 88.4375 57.2266 88.4375 54.1406 87.6562C50.3125 86.6797 46.6016 84.4922 43.5547 81.4453C38.9453 76.8359 36.7188 71.5234 36.7188 65.0391C36.7188 58.9844 38.7891 53.5547 42.7734 49.2969C48.75 42.8516 57.0703 40.2734 65.625 42.2656ZM87.1875 87.7734C91.25 91.8359 93.3594 94.2188 93.3594 94.7656C93.3594 95.8594 92.0312 96.9922 91.1328 96.7188C90.7422 96.6016 87.7344 93.7891 84.4141 90.4688L78.3984 84.4141L79.4531 83.0469C80.0391 82.2656 80.625 81.6406 80.7812 81.6406C80.9375 81.6406 83.8281 84.4141 87.1875 87.7734Z" fill="#151515"/>
<path d="M53.9062 46.2109C50.4688 47.3828 48.2422 48.75 45.8203 51.1719C39.8828 57.1875 38.4766 66.875 42.5 74.375C43.8281 76.9141 48.0859 81.1719 50.625 82.5C58.1641 86.5234 67.9297 85.0781 73.9062 79.0625C77.8906 75.0391 79.6875 70.5859 79.6875 64.6875C79.6484 56.1328 74.6484 49.1406 66.4062 46.2109C62.8906 45 57.5 44.9609 53.9062 46.2109ZM63.4375 48.6328C69.6875 49.6484 75.5859 55.8984 76.5234 62.5391C77.5781 70.0781 73.8281 76.9141 66.8359 80.2344C64.4141 81.3672 63.9844 81.4453 59.9609 81.4453C55.9375 81.4453 55.5078 81.3672 53.0078 80.1953C49.5312 78.5547 46.4453 75.4688 44.8047 71.9922C43.6328 69.4922 43.5547 69.0625 43.5547 65.0391C43.5547 61.0156 43.6328 60.5859 44.7656 58.1641C47.3047 52.8125 51.9531 49.2969 57.6172 48.4375C59.5703 48.1641 60.5469 48.1641 63.4375 48.6328Z" fill="#151515"/>
<path d="M58.5938 53.4766C58.5938 54.8437 58.4766 55 57.4609 55.1953C56.7969 55.3516 55.7031 55.9375 55.0391 56.5625C53.9062 57.5781 53.75 57.9688 53.5938 60.2344C53.3203 64.6484 54.9609 66.4062 59.375 66.4062C62.7344 66.4062 63.2812 66.7969 63.2812 69.1406C63.2812 71.4453 62.7344 71.875 59.8047 71.875C58.3203 71.875 57.6172 71.6797 57.0312 71.0938C56.1328 70.1953 53.5156 70 53.5156 70.8594C53.5156 72.0312 55.3516 74.0234 56.9531 74.6094C58.4766 75.1172 58.5938 75.2734 58.5938 76.6406C58.5938 78.125 58.5938 78.125 60.1562 78.125C61.7188 78.125 61.7188 78.125 61.7188 76.6016C61.7188 75.1953 61.8359 75.0391 63.0859 74.6094C63.8281 74.375 64.8828 73.6328 65.4297 73.0078C66.25 71.9922 66.4062 71.4453 66.4062 69.1016C66.4062 66.7188 66.2891 66.2891 65.3516 65.2344C64.1797 63.9062 62.2656 63.3203 59.375 63.2812C57.1484 63.2812 56.6406 62.7734 56.6406 60.7422C56.6406 59.8438 56.8359 58.9453 57.1094 58.6719C57.3828 58.3984 58.6328 58.2031 60.0391 58.2031C62.0703 58.2031 62.5781 58.3203 62.9688 58.9844C63.6719 60.1172 66.4062 60.1172 66.4062 58.9844C66.4062 57.8906 64.2188 55.5469 62.8906 55.2734C61.8359 55.0391 61.7188 54.8828 61.7188 53.4766C61.7188 51.9531 61.7188 51.9531 60.1562 51.9531C58.5938 51.9531 58.5938 51.9531 58.5938 53.4766Z" fill="#151515"/>
<path d="M10.0391 53.8281C1.36719 62.5 0 64.0234 0 65.0391C0 66.0547 2.14844 68.3594 16.9141 83.125C31.6797 97.8906 33.9453 100 34.9609 100C35.9375 100 36.875 99.2969 40.3516 95.7812C42.6562 93.4766 44.5312 91.4062 44.5312 91.1719C44.5312 90.9375 43.9844 90.3516 43.3203 89.8828L42.1094 88.9844L38.5156 92.5391L34.9609 96.0938L3.90625 65.0391L13.2812 55.6641C21.3672 47.5781 22.5781 46.25 22.1094 45.7031C21.8359 45.3906 21.4844 44.8047 21.3672 44.4141C21.2109 44.0625 20.8984 43.75 20.625 43.75C20.3516 43.75 15.5859 48.2812 10.0391 53.8281Z" fill="#151515"/>
<path d="M17.5781 59.5703L12.3047 64.8438L13.3984 65.8984L14.4531 66.9922L25.1562 56.2891L24.2188 55.2734C23.7109 54.7266 23.2031 54.2969 23.0859 54.2969C22.9297 54.2969 20.4688 56.6797 17.5781 59.5703Z" fill="#151515"/>
<path d="M22.6562 64.6484L17.4219 69.8828L19.6875 72.3047L25.0781 66.9141L30.4688 61.5625L29.4141 60.4688C28.8281 59.8828 28.2812 59.375 28.125 59.375C28.0078 59.375 25.5469 61.7578 22.6562 64.6484Z" fill="#151515"/>
<path d="M25.6641 72.1875L22.6562 75.2344L24.8438 77.3438L27.9297 74.2188L31.0156 71.1328L30.0781 70.1172C29.5703 69.5703 29.0625 69.1406 28.9453 69.1406C28.7891 69.1406 27.3437 70.5078 25.6641 72.1875Z" fill="#151515"/>
<path d="M29.7656 78.2422L27.7344 80.3125L30.0781 82.5781L32.2266 80.4688L34.375 78.3594L33.3203 77.2656C32.7344 76.6797 32.1875 76.1719 32.0312 76.1719C31.9141 76.1719 30.8984 77.1094 29.7656 78.2422Z" fill="#151515"/>
<path d="M33.0469 85.5469L34.1016 86.6016L35.1562 87.6953L36.7188 86.0938L38.2812 84.5312L36.0938 82.4219L33.0469 85.5469Z" fill="#151515"/>
<path d="M19.7266 61.7969L14.2578 67.3828L19.8438 61.9141C22.8906 58.9062 25.3906 56.4062 25.3906 56.3672C25.3906 56.0547 24.8047 56.6406 19.7266 61.7969Z" fill="#6B4015"/>
<path d="M25.3906 72.0703C23.7891 73.6719 22.5781 75 22.6953 75C22.7734 75 24.1797 73.6719 25.7812 72.0703C27.3828 70.4688 28.5938 69.1406 28.4766 69.1406C28.3984 69.1406 26.9922 70.4688 25.3906 72.0703Z" fill="#6B4015"/>
<path d="M27.7344 74.4141C26.1328 76.0156 24.9219 77.3438 25.0391 77.3438C25.1172 77.3438 26.5234 76.0156 28.125 74.4141C29.7266 72.8125 30.9375 71.4844 30.8203 71.4844C30.7422 71.4844 29.3359 72.8125 27.7344 74.4141Z" fill="#6B4015"/>
<path d="M34.1797 84.0625L32.6172 85.7422L34.2969 84.1797C35.8203 82.7734 36.1328 82.4219 35.8203 82.4219C35.7422 82.4219 35 83.1641 34.1797 84.0625Z" fill="#6B4015"/>
<path d="M34.4922 40.1172C35.9375 40.1953 38.2812 40.1953 39.7656 40.1172C41.2109 40.0391 40 40 37.1094 40C34.2188 40 33.0078 40.0391 34.4922 40.1172Z" fill="#966B15"/>
<path d="M17.3828 59.375L11.9141 64.8438L13.2812 66.0938L14.6484 67.3828L13.4766 66.0938L12.3438 64.8047L17.7734 59.375C20.7812 56.3672 23.125 53.9062 23.0469 53.9062C22.9297 53.9062 20.3906 56.3672 17.3828 59.375Z" fill="#966B15"/>
<path d="M4.29688 65.3516C4.29688 65.3906 11.2109 72.3047 19.6484 80.6641L34.9609 95.8984L19.7266 80.5469C5.58594 66.3281 4.29688 65.0781 4.29688 65.3516Z" fill="#966B15"/>
<path d="M33.8672 86.7188C34.5703 87.4609 35.1953 87.9688 35.2734 87.8516C35.3516 87.7734 34.8047 87.1875 34.0234 86.5625L32.6172 85.3906L33.8672 86.7188Z" fill="#966B15"/>
<path d="M59.9609 9.0625L54.4922 14.6484L60.0781 9.17969C65.2344 4.10156 65.8203 3.51563 65.5078 3.51563C65.4688 3.51563 62.9688 6.01563 59.9609 9.0625Z" fill="#C19615"/>
<path d="M52.8906 21.1719L51.7578 22.4609L53.0469 21.3281C54.2188 20.2344 54.4922 19.9219 54.1797 19.9219C54.1016 19.9219 53.5547 20.5078 52.8906 21.1719Z" fill="#C19615"/>
<path d="M93.1641 37.5781L90.0391 40.8203L93.2812 37.6953C96.25 34.8047 96.6797 34.375 96.3672 34.375C96.3281 34.375 94.8828 35.8203 93.1641 37.5781Z" fill="#C19615"/>
<path d="M13.4766 55.5469L4.10156 65.0391L13.5938 55.6641C18.7891 50.5078 23.0469 46.25 23.0469 46.2109C23.0469 45.8984 22.1875 46.7578 13.4766 55.5469Z" fill="#C19615"/>
<path d="M23.0469 54.0234C23.0469 54.1016 23.6328 54.6484 24.3359 55.3125L25.5859 56.4453L24.4531 55.1562C23.3594 53.9844 23.0469 53.7109 23.0469 54.0234Z" fill="#C19615"/>
<path d="M28.125 59.1016C28.125 59.1797 28.7109 59.7266 29.4141 60.3906L30.6641 61.5234L29.5312 60.2344C28.4375 59.0625 28.125 58.7891 28.125 59.1016Z" fill="#C19615"/>
<path d="M25 67.0703L19.7266 72.4609L25.1172 67.1875C28.0469 64.2969 30.4688 61.875 30.4688 61.8359C30.4688 61.5234 29.8828 62.1094 25 67.0703Z" fill="#C19615"/>
<path d="M29.6875 78.0078L27.5391 80.2734L29.8047 78.125C31.875 76.1719 32.2266 75.7812 31.9141 75.7812C31.875 75.7812 30.8594 76.7969 29.6875 78.0078Z" fill="#C19615"/>
<path d="M40.7812 89.9219L39.6484 91.2109L40.9375 90.0781C41.6016 89.4141 42.1875 88.8672 42.1875 88.7891C42.1875 88.4766 41.875 88.75 40.7812 89.9219Z" fill="#C19615"/>
<path d="M37.1094 93.6328L34.9609 95.8984L37.2266 93.75C39.2969 91.7969 39.6484 91.4062 39.3359 91.4062C39.2969 91.4062 38.2812 92.4219 37.1094 93.6328Z" fill="#C19615"/>
<path d="M86.9141 6.32812C85.9375 9.375 85.9375 9.64844 87.4609 10.625C90.5859 12.6562 91.0156 16.0938 88.4375 18.6719L87.1094 20L88.5547 29.8047C89.3359 35.2344 90.0781 39.7656 90.1953 39.9219C90.3516 40.0781 91.7969 38.8672 93.4766 37.1875L96.4453 34.1797L95.1172 22.0703C93.2031 4.76563 93.6719 6.71875 91.4844 6.44531C90.4687 6.32812 89.0625 6.13281 88.3594 6.01562C87.5391 5.89844 87.0312 5.97656 86.9141 6.32812Z" fill="#EC9615"/>
<path d="M82.1094 19.3359C82.4219 19.6484 81.5625 21.4453 79.2188 25.5469L77.6562 28.2031L75.625 26.3281C74.5312 25.2734 76.3672 27.1875 79.6875 30.5469C83.0078 33.9453 85.7422 36.6406 85.7812 36.6016C85.8594 36.5625 85.3516 32.7734 84.6484 28.2031C83.5938 20.8984 83.3203 19.8047 82.6172 19.4531C82.1875 19.2188 81.9531 19.1797 82.1094 19.3359Z" fill="#EC9615"/>
<path d="M83.7109 42.2656C81.6406 44.3359 81.2109 44.6094 80.6641 44.1406C80.1562 43.7109 79.9219 43.7891 79.1016 44.5312L78.125 45.4297L79.8047 47.2266C80.7031 48.2031 81.7578 49.4531 82.1484 50L82.8125 50.9375L85.1562 48.6719L83.5938 47.0312L85.3125 45.3516C86.9922 43.7109 86.9922 43.6719 86.6797 41.9141C86.4844 40.8984 86.2891 40.0391 86.2109 40C86.1328 39.9219 85 40.9375 83.7109 42.2656Z" fill="#EC9615"/>
<path d="M22.4609 64.5312L16.9922 70.1172L22.5781 64.6484C25.625 61.6406 28.125 59.1406 28.125 59.1016C28.125 58.7891 27.5391 59.375 22.4609 64.5312Z" fill="#EC9615"/>
<path d="M31.4453 65.9375C30.3906 66.9531 28.4375 68.0859 25.5859 69.3359C23.2422 70.3516 21.0156 71.4453 20.6641 71.7188C20.3516 72.0312 19.7266 72.2656 19.3359 72.2656C18.7109 72.2656 14.1406 73.75 13.6719 74.1016C13.5938 74.1797 18.3203 79.0625 24.2187 84.9609L34.9609 95.7031L38.4766 92.1875C41.25 89.4141 42.1094 88.75 42.5 89.1406C43.2812 89.9219 44.0234 89.8047 44.9219 88.8672L45.7812 87.9688L44.8828 87.2266C37.5 81.3672 33.7891 74.6094 33.125 65.7031L33.0078 64.4141L31.4453 65.9375ZM30.2734 69.9219L31.4062 71.0938L28.125 74.4141L24.8438 77.7344L22.2656 75.2344L25.4687 71.9922C27.2266 70.1953 28.7891 68.75 28.9062 68.75C29.0625 68.75 29.6484 69.2969 30.2734 69.9219ZM33.3984 76.9531L34.5312 78.125L32.2266 80.4688L29.9219 82.8125L28.8281 81.7578C28.2422 81.1719 27.7344 80.5469 27.7344 80.3125C27.7344 79.8828 31.6406 75.7812 32.0312 75.7812C32.1875 75.7812 32.7734 76.3281 33.3984 76.9531ZM36.9141 86.2891L35.1562 88.0859L33.9062 86.7969L32.6562 85.5469L36.0937 82.0312L38.6719 84.5312L36.9141 86.2891Z" fill="#EC9615"/>
<path d="M60.3516 8.98437C57.3438 11.9922 54.6875 14.4531 54.4531 14.4531C54.2187 14.4531 53.7891 14.1797 53.5156 13.8672C53.0469 13.3203 52.8125 13.4375 51.4844 14.7266L50 16.1719V26.7578L51.6406 25.1172C53.2031 23.5547 53.2422 23.4375 52.6172 22.7344C51.9922 22.0703 52.1875 21.7969 56.3672 17.6562C59.6094 14.4141 61.0156 13.2812 61.7188 13.2812C62.4609 13.2812 64.4531 15.0391 70.1172 20.7031L77.5 28.0859L79.0234 25.4687C79.8828 24.0234 80.9375 22.0703 81.3281 21.1719L82.1094 19.4531L81.2891 18.5937C80.0781 17.3437 79.6094 15.3906 80.0781 13.6719C80.625 11.6016 82.8906 9.76562 84.8438 9.76562C85.625 9.76562 85.8594 9.45312 86.25 7.96875C86.5234 6.95312 86.6797 6.09375 86.6406 6.01562C86.5625 5.97656 82.3828 5.46875 77.3438 4.92187C72.3047 4.33594 67.6172 3.82812 66.9922 3.71094C65.8984 3.51562 65.3516 3.94531 60.3516 8.98437Z" fill="#ECC140"/>
<path d="M48.0859 37.1484C46.25 39.4922 44.5703 40 38.2031 40.1562C33.7109 40.2734 32.4219 40.4297 32.4219 40.8203C32.4219 41.1328 32.6953 42.6172 33.0078 44.1406C34.1016 49.3359 32.7344 49.6875 27.1484 45.7031C23.5156 43.125 23.2422 43.0078 22.5781 43.6328C21.7188 44.4141 21.6797 45.0391 22.5 45.7422C23.0078 46.1719 21.875 47.4609 13.7109 55.625L4.29688 65.0391L8.75 69.4922L13.2031 73.9062L15.2734 73.2422C16.4453 72.8516 17.6953 72.3828 18.0859 72.1875C18.7891 71.8359 18.7891 71.7578 17.9297 70.8594L17.0312 69.8828L28.0859 58.8281L29.2969 59.9609C29.9219 60.5859 30.4688 61.25 30.4688 61.4844C30.4688 61.7187 28.4766 63.9062 26.0938 66.3281C23.6719 68.75 22.0312 70.625 22.4609 70.4688C22.8906 70.3125 24.9219 69.4141 26.9531 68.4766C31.0156 66.6016 33.2031 64.8047 33.2031 63.3984C33.2031 61.1328 34.5703 56.1719 35.9375 53.3203C37.6562 49.7656 40 46.7969 43.0078 44.2578C45.2344 42.4609 50.8984 39.4531 52.1484 39.4531C52.7344 39.4531 52.5 39.0625 51.1719 37.6953C50.2344 36.7188 49.3359 35.9375 49.2188 35.9766C49.1016 35.9766 48.5938 36.5234 48.0859 37.1484ZM24.4141 55.0781L25.5469 56.2891L14.4531 67.3828L13.2031 66.0938L11.9141 64.8438L17.3828 59.375C20.3906 56.3672 22.9297 53.9062 23.0469 53.9062C23.2031 53.9062 23.7891 54.4531 24.4141 55.0781Z" fill="#ECC140"/>
<path d="M58.0078 21.0937C54.8828 24.2187 54.4531 24.5312 53.9062 24.0234C53.3594 23.5156 53.0859 23.6328 51.6406 25.1172L50 26.7969V30.1562C50 32.0312 49.8047 34.0234 49.6094 34.6094C49.2188 35.5859 49.3359 35.8594 50.8984 37.4219L52.6172 39.1406L55.625 38.6719C62.8906 37.4609 70.8594 39.5312 76.4062 43.9844L78.0078 45.2734L78.9062 44.3359C79.6484 43.5156 79.7266 43.2812 79.2969 42.7734C78.8672 42.2266 79.0625 41.875 80.6641 40.2344L82.5391 38.3203L74.1797 29.8828C69.5703 25.2734 64.8438 20.5859 63.6328 19.5312L61.4453 17.6172L58.0078 21.0937Z" fill="#ECC16B"/>
<path d="M86.7187 87.6953C90.0391 91.0156 92.8516 93.75 92.9687 93.75C93.0859 93.75 90.4297 91.0156 87.1094 87.6953C83.7891 84.375 80.9766 81.6406 80.8594 81.6406C80.7422 81.6406 83.3984 84.375 86.7187 87.6953Z" fill="#156B96"/>
<path d="M84.375 90.4297C87.6953 93.75 90.5078 96.4844 90.625 96.4844C90.7422 96.4844 88.0859 93.75 84.7656 90.4297C81.4453 87.1094 78.6328 84.375 78.5156 84.375C78.3984 84.375 81.0547 87.1094 84.375 90.4297Z" fill="#156B96"/>
<path d="M43.75 4.33594C43.75 4.64844 43.0469 5.85937 42.1875 7.03125L40.625 9.17969L41.9922 9.96094L43.3203 10.7812L39.2188 18.2031C36.9531 22.2656 34.8047 25.8984 34.4141 26.3281C33.3594 27.3828 32.4219 26.875 30.2734 24.2188C29.2188 22.9297 28.2813 21.875 28.125 21.875C27.9688 21.875 26.4453 22.8906 24.7266 24.1016C22.9688 25.3516 20.3516 27.1094 18.9062 28.0078L16.2109 29.6875H43.3594L43.3594 31.6406L43.3594 33.5938H25.9766C9.02344 33.5938 8.51562 33.6328 6.95313 34.4141C5.42969 35.1953 5.35156 35.2734 6.05469 35.7812C6.60156 36.2109 8.39844 36.3281 13.3984 36.3281C17.6172 36.3281 20.2734 36.4844 20.8203 36.7969C21.2891 37.0312 23.2031 38.3594 25.1172 39.7266C27.0313 41.1328 28.6328 42.1875 28.7109 42.1094C28.7891 42.0312 28.6328 41.0547 28.3984 39.8828C28.0078 37.8906 28.0469 37.7344 28.8672 37.0312C29.6875 36.4062 30.5469 36.3281 36.4062 36.3281C46.9531 36.3281 46.4844 37.0703 46.4844 19.9219C46.4844 6.64062 46.4453 6.21094 44.5703 4.53125C43.9453 3.98437 43.75 3.90625 43.75 4.33594Z" fill="#6BC1C1"/>
<path d="M34.8828 15.5078C32.5 17.9297 31.0937 19.1016 30.7812 18.9062C30.5078 18.75 30.8984 19.3359 31.6406 20.1953C32.3828 21.0937 33.0078 21.7969 33.0469 21.7578C33.0859 21.7187 33.9453 20.1953 34.9609 18.3594C35.9766 16.5234 37.2266 14.2969 37.7344 13.3594C38.2812 12.4609 38.6719 11.7187 38.5938 11.7578C38.5156 11.7578 36.875 13.4766 34.8828 15.5078Z" fill="#6BC1C1"/>
<path d="M56.6406 48.8672C52.1875 49.7266 47.1875 53.6719 45.1953 57.8516C42.2266 64.1797 43.4375 71.4453 48.2812 76.4453C53.2031 81.4453 60.7812 82.8125 67.1484 79.8047C69.9219 78.4766 73.3594 75.0391 74.7656 72.2266C80.7031 60 70.0391 46.25 56.6406 48.8672ZM66.4844 51.4844C69.5703 52.9688 72.3047 55.7812 73.75 58.9062C74.6875 60.8594 74.8047 61.6016 74.8047 65.0391C74.8047 68.4375 74.6875 69.2188 73.7891 71.1328C67.8516 83.75 49.9609 82.6562 45.6641 69.4141C43.2031 61.7578 47.4219 53.4766 55.1953 50.7031C58.4375 49.5312 63.2422 49.8828 66.4844 51.4844Z" fill="#6BC1C1"/>
<path d="M55.1562 42.3828C49.6875 43.5938 43.9062 47.5391 40.7812 52.2266C39.9609 53.4375 38.7891 55.9766 38.1641 57.8125C33.9062 70.1172 41.1328 83.5156 54.1016 87.3438C55.625 87.7734 57.7344 88.0078 60.1562 88.0078C68.8281 88.0078 76.7969 83.0078 80.625 75.1953C85.1562 66.0938 83.4766 56.0547 76.2109 48.7891C70.4297 43.0469 62.8516 40.7422 55.1562 42.3828ZM65 45.5078C68.75 46.4844 71.5234 48.0859 74.2188 50.7812C78.0859 54.6484 80.0781 59.4922 80.0781 65.0391C80.0781 77.8516 68.3594 87.3438 55.7812 84.7266C48.3984 83.2031 41.7969 76.6016 40.2734 69.2188C38.0859 58.75 44.4922 48.2812 54.7266 45.5469C57.5 44.8047 62.1875 44.7656 65 45.5078Z" fill="#4096EC"/>
<path d="M80.8984 86.6016L85.8594 91.5234C88.5938 94.2578 91.0938 96.4844 91.4453 96.4844C92.2656 96.4844 92.9688 95.7031 92.9688 94.7266C92.9688 94.2188 91.1328 92.1094 87.9688 88.9453L82.9297 83.9453L80.8984 86.6016Z" fill="#4096EC"/>
<path d="M5.97656 4.29688C3.55469 5.74219 3.51562 6.05469 3.51562 19.9219C3.51562 30.7031 3.59375 32.6953 4.14062 33.8281C4.88281 35.3516 5.15625 35.3906 6.99219 34.4141C8.32031 33.7109 8.32031 33.6719 7.5 33.2422C6.64063 32.7734 6.64062 32.7344 6.64062 20.5078V8.20313H10.1562V19.1797L11.4844 17.8125C12.1875 17.0312 13.0469 16.4063 13.3984 16.4063C13.9453 16.4063 15 17.5 17.5 20.6641L18.2422 21.6406L21.0547 17.4609C24.6484 12.0703 25 11.9922 28.4766 16.2109L30.8984 19.1797L32.2656 18.0859C34.2578 16.5625 38.6328 11.7578 39.375 10.2344C39.7266 9.57031 40.1562 8.98438 40.3906 8.98438C40.8594 8.98438 43.75 5 43.75 4.375C43.75 4.17969 43.4766 3.86719 43.125 3.75C42.7734 3.63281 34.5703 3.51563 24.8828 3.51563C8.04687 3.51563 7.14844 3.55469 5.97656 4.29688Z" fill="#6BC1EC"/>
<path d="M22.3047 22.3828C20.8203 24.6484 19.2969 26.5625 18.9844 26.6797C17.9297 27.1094 17.2266 26.5625 15.2344 23.9453L13.3203 21.4453L11.7578 23.5547C10.3516 25.3906 10.1562 25.9375 10.1562 27.6563V29.6875H13.1641C16.0156 29.6875 16.25 29.6094 19.1016 27.8516C20.7422 26.8359 23.4375 25.0781 25.0781 23.8672L28.0859 21.7188L26.9141 20.2344C26.25 19.4141 25.5859 18.6719 25.3906 18.5547C25.1953 18.4375 23.7891 20.1563 22.3047 22.3828Z" fill="#6BC1EC"/>
<path d="M55.1953 50.7031C47.4219 53.4766 43.2031 61.7578 45.6641 69.4141C47.2656 74.3359 50.7031 77.8125 55.4297 79.2969C62.7344 81.6016 70.4688 78.1641 73.7891 71.1328C74.6875 69.2188 74.8047 68.4375 74.8047 65.0391C74.8047 61.6016 74.6875 60.8594 73.75 58.9062C72.3047 55.7812 69.5703 52.9688 66.4844 51.4844C63.2422 49.8828 58.4375 49.5312 55.1953 50.7031ZM61.7188 53.0859C61.7188 54.4922 61.7969 54.6094 63.4375 55.2344C65.2734 55.9375 66.2891 57.1094 66.6797 58.9844C66.875 60.1562 66.875 60.1562 65.1172 60.1562C63.7109 60.1562 63.2031 60 62.8906 59.375C62.5 58.6719 62.1484 58.5547 59.8438 58.6719L57.2266 58.7891L57.1094 60.4688C56.9141 62.8906 57.4219 63.2812 60.5078 63.2812C63.5547 63.2812 64.6875 63.7891 65.9375 65.625C66.7578 66.7969 66.8359 67.3438 66.7188 69.6875C66.5625 72.1875 66.4844 72.4219 65.1172 73.6719C64.2969 74.4531 63.2812 75 62.6953 75C61.7969 75 61.7188 75.1562 61.7188 76.7578V78.5156H58.2031V76.7578C58.2031 75.1562 58.125 75 57.2656 75C56.1328 75 54.4531 73.7109 53.7109 72.2656C52.6953 70.2734 52.8906 69.9219 55.0781 69.9219C56.4844 69.9219 57.0312 70.0781 57.0312 70.4688C57.0312 71.2109 57.8906 71.4844 60.3516 71.4844C62.6562 71.4844 63.2812 70.9375 63.2812 68.9844C63.2812 67.3438 62.3438 66.7969 59.4531 66.7969C55.0781 66.7969 53.125 64.8828 53.125 60.625C53.125 57.7734 54.6875 55.7813 57.5391 54.9219C58.0078 54.7656 58.2031 54.2969 58.2031 53.125V51.5625H61.7188V53.0859Z" fill="#6BC1EC"/>
</svg>
