<svg width="101" height="100" viewBox="0 0 101 100" fill="none" xmlns="http://www.w3.org/2000/svg">
<path d="M48.3096 12.2924C46.7071 13.6994 45.6517 14.0903 41.4696 14.7547C39.4763 15.0674 38.6945 15.4192 37.6392 16.4354C34.1216 19.8358 35.0596 25.3078 39.4763 27.0666C40.3361 27.4184 41.0397 27.9265 41.0397 28.2001C41.0397 28.4737 41.5478 29.2945 42.2122 30.0371C42.8376 30.7798 43.3457 31.6787 43.3848 31.9914C43.3848 32.3823 42.0559 33.0858 39.359 34.0629C34.317 35.8999 33.1444 36.6426 31.7764 38.675C30.7211 40.2775 30.682 40.5511 30.5648 46.1403L30.4084 51.925H69.572V46.8829C69.572 38.1278 68.5558 36.7598 59.3316 33.5157C56.3221 32.4604 56.1266 32.0696 57.8464 30.0371C58.5108 29.2945 59.019 28.4737 59.019 28.2001C59.019 27.9265 59.7225 27.4184 60.5824 27.0666C64.999 25.3078 65.9371 19.8358 62.4194 16.4354C61.3641 15.4192 60.5824 15.0674 58.589 14.7547C54.446 14.0903 53.3907 13.6994 51.71 12.2533C50.811 11.5106 50.0293 10.8853 49.9511 10.8853C49.9121 10.9244 49.1304 11.5106 48.3096 12.2924ZM51.4364 16.24C51.9836 16.5918 53.2734 17.0999 54.2505 17.3344L56.0876 17.8034L56.2048 21.6729C56.283 25.0733 56.1657 25.7377 55.384 27.1057C54.446 28.7864 51.8272 30.428 50.0293 30.428C48.2314 30.428 45.6127 28.7864 44.6746 27.1057C43.8929 25.7377 43.7757 25.0733 43.8538 21.6729L43.9711 17.8034L45.8081 17.3344C46.7852 17.0999 48.036 16.5918 48.5441 16.24C49.7166 15.4192 50.2247 15.4192 51.4364 16.24ZM40.258 20.8911C40.258 22.8063 40.1798 23.0408 39.6717 22.6109C38.9681 22.0246 38.89 19.8358 39.5544 19.1714C39.828 18.8978 40.0625 18.7024 40.1407 18.7024C40.2189 18.7024 40.258 19.6795 40.258 20.8911ZM60.9732 20.8521C60.9732 21.5556 60.6996 22.3373 60.3869 22.6109C59.8788 23.0408 59.8007 22.8063 59.8007 20.8521C59.8007 18.8978 59.8788 18.6633 60.3869 19.0932C60.6996 19.3668 60.9732 20.1485 60.9732 20.8521ZM51.5927 35.7045C50.9674 36.7598 50.2638 37.6588 50.0293 37.6588C49.7948 37.6588 49.0913 36.7598 48.4659 35.7045L47.3324 33.7502H52.7262L51.5927 35.7045ZM45.9254 38.675C46.7461 39.9648 47.3324 41.0983 47.2543 41.1374C47.1761 41.2156 46.5507 41.5673 45.8472 41.9191L44.6355 42.5445L43.6584 39.6131C42.6813 36.7598 42.7203 36.4081 44.0493 36.3299C44.2838 36.2908 45.1436 37.3461 45.9254 38.675ZM56.7911 36.5253C57.2992 36.7207 57.221 37.1507 56.4002 39.6521L55.4231 42.5445L54.2115 41.9191C53.5079 41.5673 52.8826 41.2156 52.8044 41.1374C52.609 40.942 55.5404 36.2908 55.8921 36.2908C56.0876 36.2908 56.4784 36.4081 56.7911 36.5253ZM40.8052 42.8181C41.626 45.3586 42.3686 47.4692 42.4077 47.5474C42.4858 47.6256 44.2056 46.8439 46.2771 45.7885L50.0293 43.9124L53.7815 45.7885C55.853 46.8439 57.5728 47.6256 57.651 47.5474C57.6901 47.4692 58.3936 45.3977 59.2144 42.9353C60.0352 40.4729 60.7387 38.3623 60.8169 38.3232C61.1296 37.9324 63.7092 39.1831 64.7254 40.2384C65.7807 41.3328 65.8589 41.6846 66.0152 44.7332L66.1325 48.0164H33.9261L34.0434 44.7332C34.1997 41.88 34.317 41.2937 35.1769 40.3948C36.1149 39.3785 37.991 38.2842 38.89 38.2451C39.1245 38.2451 39.9844 40.3166 40.8052 42.8181Z" fill="#151515"/>
<path d="M24.1157 15.8882C23.5294 16.4745 23.0604 17.1389 23.0604 17.3344C23.0604 17.5298 23.7248 18.3506 24.5065 19.1714L25.9527 20.6566H22.1614C17.9793 20.6566 16.6895 21.0866 15.2824 22.8454C14.4616 23.8616 14.4616 24.2525 14.4616 39.4567V55.0518H17.9793V40.0039C17.9793 22.5327 17.4712 24.1743 22.904 24.1743H26.3436L24.702 25.855C23.803 26.754 23.0604 27.692 23.0604 27.9265C23.0604 28.161 23.6076 28.8255 24.233 29.4509L25.4446 30.5843L33.418 22.6109L29.5095 18.7024C27.3598 16.5527 25.5228 14.7938 25.4055 14.7938C25.2492 14.7938 24.702 15.3019 24.1157 15.8882Z" fill="#151515"/>
<path d="M67.6177 24.1743H71.6435C77.819 24.1743 77.3891 23.3535 77.3891 35.4309V45.4368L73.8714 41.9973L71.1354 44.6551L74.9267 48.4854C77.0373 50.5961 78.9134 52.3158 79.1479 52.3158C79.6951 52.3158 86.7696 45.2023 86.7696 44.6551C86.7696 44.4206 86.2224 43.7561 85.597 43.1307L84.4245 41.9973L80.9068 45.4368V35.1182C80.9068 26.0504 80.8286 24.6043 80.2032 23.3926C79.1089 21.2038 77.5454 20.6566 72.2298 20.6566H67.6177V24.1743Z" fill="#151515"/>
<path d="M0 100H32.4409V57.7878H0V100ZM28.9232 96.4823H3.51769V61.3055H28.9232V96.4823Z" fill="#151515"/>
<path d="M6.41001 65.6439C6.52726 66.3084 6.64452 67.0119 6.64452 67.2074C6.64452 67.4028 10.9439 67.5591 16.1814 67.5591H25.7182L25.9527 66.3475C26.07 65.683 26.1872 64.9795 26.1872 64.7841C26.1872 64.5886 21.6924 64.4323 16.1814 64.4323H6.17549L6.41001 65.6439Z" fill="#151515"/>
<path d="M6.64452 72.6402C6.64452 74.1646 6.6836 74.2036 8.01251 74.2036C9.34141 74.2036 9.3805 74.1646 9.3805 72.6402C9.3805 71.1159 9.34141 71.0768 8.01251 71.0768C6.6836 71.0768 6.64452 71.1159 6.64452 72.6402Z" fill="#151515"/>
<path d="M12.8982 74.2036H25.7964V71.0768H12.8982V74.2036Z" fill="#151515"/>
<path d="M6.64452 80.4573H25.7964V77.7213H6.64452V80.4573Z" fill="#151515"/>
<path d="M6.64452 87.1018H16.2204H25.7964V83.975H6.64452V87.1018Z" fill="#151515"/>
<path d="M6.64452 93.3555H19.1518V90.6195H6.64452V93.3555Z" fill="#151515"/>
<path d="M22.6695 91.9875C22.6695 93.3164 22.7086 93.3555 24.233 93.3555C25.7573 93.3555 25.7964 93.3164 25.7964 91.9875C25.7964 90.6586 25.7573 90.6195 24.233 90.6195C22.7086 90.6195 22.6695 90.6586 22.6695 91.9875Z" fill="#151515"/>
<path d="M72.6989 65.5267C70.1192 66.5038 66.367 70.3342 65.5071 72.9138C63.3965 79.2847 66.0152 85.8902 71.839 88.7434C74.145 89.8769 74.7704 90.0332 77.5845 89.9941C81.3367 89.9551 83.5255 89.0952 86.1442 86.6719C88.8411 84.2486 90.0528 81.3563 90.0528 77.5259C90.0919 74.7508 89.9355 74.0864 88.802 71.7803C86.5351 67.1683 82.5875 64.7841 77.2718 64.8622C75.6693 64.8622 73.7151 65.1749 72.6989 65.5267ZM80.555 68.1454C85.6361 69.8652 88.2548 75.2589 86.6914 80.6136C86.0661 82.7633 82.822 86.0074 80.6723 86.6328C78.0145 87.4145 75.4348 87.2191 73.1679 86.0856C65.2726 82.138 66.0934 71.1159 74.5359 68.1063C76.4901 67.4028 78.4444 67.4419 80.555 68.1454Z" fill="#151515"/>
<path d="M74.7313 71.7022C74.0278 72.093 72.9724 72.992 72.3862 73.7346C71.0182 75.5716 70.9009 79.0111 72.1516 80.7309C73.5196 82.5679 75.3567 83.5841 77.2718 83.5841C80.985 83.5841 83.291 81.4344 83.5646 77.7604C83.7209 75.3371 82.9001 73.6564 80.8286 72.1321C79.4215 71.0768 76.3729 70.8814 74.7313 71.7022ZM79.8515 75.8843C81.6885 78.2685 78.5226 81.5517 75.982 79.9101C73.9496 78.5421 74.145 75.728 76.3338 74.7899C77.78 74.2036 78.8743 74.5163 79.8515 75.8843Z" fill="#151515"/>
<path d="M37.0139 73.3438C34.9423 75.4153 33.2226 77.3305 33.2226 77.5259C33.2226 77.7604 34.9033 79.5974 36.9357 81.6299L40.6488 85.3039L43.3848 82.6461L40.1016 79.2847H51.9836V75.7671H39.7108L43.3848 72.0149L40.8052 69.5134L37.0139 73.3438Z" fill="#151515"/>
<path d="M45.4563 0.527653C42.9939 1.27028 39.9844 3.3418 38.4991 5.29607C36.3494 8.11022 35.4895 10.8462 35.2941 15.771L35.1378 20.0704L35.8804 18.5069C36.7012 16.7481 38.6945 14.872 39.9844 14.6375C40.4534 14.5202 41.7823 14.3248 42.9549 14.2075C45.4563 13.9339 47.0197 13.1913 48.7786 11.5497L50.0293 10.3381L51.3191 11.5497C53.1171 13.2695 54.7586 13.973 57.5337 14.2857C61.325 14.6375 63.2011 15.9664 64.3346 18.976C64.8818 20.383 64.9209 20.2267 64.7254 15.9664C64.6082 13.3086 64.2955 10.768 63.9046 9.71272C62.4194 5.45241 58.589 1.7393 54.5241 0.527653C52.2181 -0.175884 47.6842 -0.175884 45.4563 0.527653Z" fill="#ECC16B"/>
<path d="M70.7446 56.6934C70.471 57.8269 70.1974 58.8822 70.0801 59.0385C70.002 59.1948 69.0639 58.804 67.9695 58.1786C66.9142 57.5142 65.898 57.0061 65.7416 57.0061C65.5853 57.0061 63.5138 58.9603 61.1687 61.3055C57.5728 64.9404 56.9474 65.7221 57.2992 66.3084C57.4946 66.6602 58.0809 67.6373 58.5499 68.419C59.058 69.2007 59.2926 69.9042 59.1362 70.0215C58.9799 70.0997 57.8855 70.4124 56.752 70.686L54.7196 71.155L54.7977 77.4477L54.915 83.7405L57.1819 84.2877L59.4098 84.8349L58.1982 86.9846L56.9474 89.1343L61.325 93.5118L65.7026 97.8503L67.6568 96.7559C69.572 95.7006 70.3537 95.6615 70.3537 96.5996C70.3537 96.8732 70.5492 97.733 70.7837 98.5538L71.1745 100L77.5064 99.9218L83.7991 99.8046L84.8935 95.3488L86.7696 96.5214C87.7858 97.1468 88.763 97.6549 88.9584 97.6549C89.4274 97.6549 97.7135 89.3688 97.7135 88.8997C97.7135 88.7043 97.2054 87.7272 96.58 86.711L95.4075 84.8349L99.8632 83.7405L99.9805 77.4477L100.059 71.1159L98.417 70.686C95.9938 70.0606 95.6811 69.9433 95.8374 69.5916C95.9156 69.4352 96.3846 68.4581 96.9318 67.4419L97.8699 65.5658L89.1929 56.8888L87.0432 58.1395L84.8935 59.3512L84.3463 57.1233L83.7991 54.8564L77.5064 54.7391L71.2136 54.6609L70.7446 56.6934ZM83.0565 65.6439C87.5904 67.7936 90.3655 72.2885 90.4045 77.6041C90.4436 82.6461 87.434 87.1018 82.5484 89.3688C76.4901 92.1438 68.5949 89.1733 65.7026 82.9978C64.2955 80.0664 64.1392 75.8843 65.3117 72.8356C66.4843 69.6697 69.3766 66.6992 72.5034 65.3703C75.5912 64.0805 80.0469 64.1978 83.0565 65.6439Z" fill="#ECC16B"/>
<path d="M74.4968 68.3408C73.9105 68.5362 72.8552 69.0835 72.1517 69.5525C64.5691 74.829 68.1259 86.7891 77.3109 86.7891C82.822 86.7891 86.8478 82.8024 86.8478 77.3696C86.8478 73.5001 84.9326 70.4905 81.4931 68.888C79.4606 67.9109 76.6465 67.7155 74.4968 68.3408ZM79.3825 71.1159C84.8153 72.9529 85.6361 80.301 80.7114 83.076C76.881 85.2257 72.2689 83.1933 71.0964 78.8548C70.2365 75.6498 72.0344 72.4057 75.3176 71.2722C77.1546 70.6078 77.7018 70.5687 79.3825 71.1159Z" fill="#ECC16B"/>
<path d="M6.25366 69.318C6.25366 70.686 6.25366 70.686 8.01251 70.686H9.77135V74.2036H8.01251H6.25366V77.3305H26.1872V74.2036H12.8982V70.686H26.1872V67.95H6.25366V69.318Z" fill="#ECC16B"/>
<path d="M6.25366 83.5841H26.1872V80.8482H6.25366V83.5841Z" fill="#ECC16B"/>
<path d="M6.25366 90.2287H19.5427V91.9875C19.5427 93.7463 19.5427 93.7463 20.9107 93.7463C22.2787 93.7463 22.2787 93.7463 22.2787 91.9875V90.2287H26.1872V87.1018H16.2204H6.25366V90.2287Z" fill="#ECC16B"/>
</svg>
